
<svg width="199" height="15" viewBox="0 0 199 15" fill="none" xmlns="http://www.w3.org/2000/svg" preserveAspectRatio="none">
<path d="M3.60318 8.61046L3.62579 8.54656L3.55796 8.58916L3.60318 8.61046Z" fill="#81b642"/>
<path d="M14.6744 10.6127L14.849 12.0753C14.6895 11.9475 14.5225 11.8481 14.3858 11.8765C13.6265 12.0398 13.0418 12.5865 12.2142 12.4161C12.1231 12.4161 11.994 12.5723 11.8801 12.6433C11.4321 12.9202 11.5991 12.4729 11.4852 12.3735C10.9841 11.9191 11.5915 11.912 11.8117 11.7345C11.8371 11.6935 11.8504 11.6469 11.8504 11.5996C11.8504 11.5522 11.8371 11.5057 11.8117 11.4647C11.6572 11.3347 11.4922 11.216 11.3182 11.1097C11.3275 11.197 11.3275 11.285 11.3182 11.3724C10.4146 11.4576 11.1511 12.6007 10.2476 12.693C10.1564 12.693 10.0046 12.8492 10.0198 12.8847C10.2627 13.4456 9.68567 13.4101 9.38953 13.5947C9.32879 13.6302 9.2073 13.5521 9.10859 13.5237C9.10859 13.5237 9.10859 13.6089 9.16174 13.616C9.30601 13.6515 9.45028 13.6728 9.59455 13.7012L9.9818 13.7651C9.86031 13.8361 9.73123 13.9639 9.60214 13.971C8.4328 13.971 7.25587 13.971 6.07893 14.0065C5.66311 14.0891 5.25447 14.2006 4.85644 14.3402C4.67532 14.3616 4.49201 14.3213 4.34011 14.2266C4.27177 14.1911 4.34011 13.9994 4.34011 13.8858C4.4748 13.9156 4.61198 13.9346 4.75013 13.9426C4.8943 13.9497 5.03877 13.9497 5.18294 13.9426C5.1222 13.829 5.06905 13.6302 5.01589 13.6302C4.66721 13.6505 4.31995 13.6885 3.97564 13.7438C3.84655 13.7438 3.71747 13.8219 3.58079 13.8361C3.44412 13.8503 3.48968 13.7438 3.43652 13.7012C3.51083 13.604 3.60043 13.5178 3.70228 13.4456C4.4616 13.3462 3.54283 13.1829 3.70228 13.0693C2.85185 13.2894 4.4616 10.9819 2.54813 12.196C2.34311 12.3238 1.78881 11.9972 1.37119 11.8907C1.53065 11.841 1.75085 11.8268 1.82678 11.7274C1.90271 11.628 1.87993 11.415 1.90271 11.2517C1.79641 11.2517 1.62177 11.202 1.59899 11.2517C1.56374 11.3499 1.54829 11.4535 1.55343 11.557C1.55343 11.557 1.55343 11.6422 1.55343 11.6493L1.21174 11.7061C1.13257 11.4576 1.09919 11.1983 1.11303 10.9393C1.22848 10.3157 1.15753 9.67443 0.908012 9.08616C0.908012 9.00806 1.18136 8.73115 1.21174 8.74535C1.37135 8.82788 1.55741 8.85392 1.73587 8.81872C1.91433 8.78352 2.07329 8.68943 2.18366 8.55365C2.3242 8.47331 2.47822 8.4157 2.63925 8.38325C2.63925 8.45425 2.54813 8.55365 2.58609 8.58915C2.65058 8.66245 2.73834 8.71467 2.83667 8.73825C2.96575 8.63175 3.04168 8.46135 3.19354 8.38325C3.38145 8.31506 3.57795 8.26972 3.77821 8.24835L3.65672 8.54655L3.58839 8.58915L3.41374 8.53945C3.41374 8.53945 3.36819 8.58205 3.34541 8.60335C3.32263 8.62465 3.43652 8.68855 3.45171 8.68145L3.58839 8.58915H3.63394V8.52525C3.7934 8.42585 3.94526 8.31935 4.10472 8.23415C4.26417 8.14895 4.4616 8.09925 4.49956 8.09925C5.19813 8.68855 5.77521 8.17735 6.38266 7.94304C6.38266 7.94304 6.47377 8.00694 6.51933 8.04245L6.32191 8.12055C6.27635 8.12055 6.20801 8.18445 6.20801 8.19865C6.20801 8.21285 6.29913 8.28385 6.30672 8.33355C6.31432 8.38325 6.24598 8.40455 6.20801 8.43295C6.17005 8.46135 6.36747 8.37615 6.39784 8.39745C6.57248 8.52525 6.69397 7.63774 6.8914 8.39745L8.05314 8.04955L7.49885 7.93594L8.02277 7.68034C8.22253 7.61344 8.41563 7.53029 8.59985 7.43184C9.19971 7.02003 9.7616 7.50994 10.3387 7.43184C10.407 7.43184 10.445 7.28274 10.5133 7.26144C10.7208 7.22977 10.9261 7.1871 11.1284 7.13364C11.7586 6.87803 11.0221 7.04133 11.0524 6.96323C11.0828 6.88513 11.0524 6.89933 11.0524 6.89223L11.6447 6.67923C11.6719 6.74103 11.6922 6.80526 11.7054 6.87093C11.6878 6.93831 11.6596 7.00289 11.6219 7.06263C11.7885 6.9931 11.9507 6.91487 12.1079 6.82833C12.1914 6.77153 12.2673 6.58693 12.3053 6.59403C12.5862 6.65793 12.9887 6.29582 13.1633 6.75733C13.1633 6.79283 13.2317 6.82123 13.2696 6.84963C13.2771 6.81926 13.2771 6.7877 13.2696 6.75733V6.35973C13.3759 6.51593 13.5582 6.66503 13.5658 6.82123C13.5733 6.97743 13.3304 7.14073 13.338 7.29694C13.3456 7.45314 13.543 7.55964 13.6796 7.65904C13.8163 7.75844 14.1125 7.78684 14.1884 7.92174C14.2643 8.05665 14.3099 8.10635 14.3327 8.11345L14.5529 9.94527C14.4541 9.80327 14.3554 9.66126 14.3023 9.77487L14.1125 9.68256L13.9454 9.98787C14.3327 10.0447 14.4466 10.3997 14.6744 10.6127ZM6.32191 11.2446C6.09604 11.2054 5.8644 11.2054 5.63853 11.2446C5.44111 11.3085 5.30443 11.5073 5.13738 11.6422L5.70687 11.7558L6.32191 11.2446ZM8.59985 10.3429C8.55429 10.3429 8.50114 10.3429 8.46317 10.3429L6.94455 10.9464C6.80833 10.988 6.66864 11.0188 6.52693 11.0387L7.17993 11.1168C7.41532 10.7192 7.47607 11.6848 7.79498 11.1168C7.90887 10.7902 8.25816 10.5843 8.55429 10.3429H8.59985ZM13.543 10.3429C13.4974 9.91687 13.1785 10.1441 12.9203 10.1725C12.3964 9.98077 13.057 10.563 12.6925 10.492L13.4519 10.705C13.4905 10.5928 13.5059 10.4747 13.4974 10.3571L13.543 10.3429Z" fill="#81b642"/>
<path d="M14.6351 12.3594C14.3618 12.5724 13.8075 12.1748 13.648 12.7073C13.6282 12.6292 13.6002 12.5531 13.5645 12.4801C13.5128 12.4633 13.4567 12.4633 13.405 12.4801C13.1469 13.0339 13.8151 12.8422 13.9973 13.0552C14.0236 13.0892 14.0542 13.1202 14.0884 13.1475L14.2555 12.6363C14.544 12.4162 14.5212 12.6789 14.506 12.9345H14.954L14.8705 12.2245C14.7797 12.2472 14.698 12.2941 14.6351 12.3594Z" fill="#81b642"/>
<path d="M13.1329 12.8137C12.4267 12.7569 11.8876 12.8137 12.4799 13.6089C12.4799 13.2255 12.5786 12.8989 13.2392 12.9557C13.224 12.906 13.186 12.8208 13.1329 12.8137Z" fill="#81b642"/>
<path d="M12.4784 13.616L12.4708 13.6089V13.6373L12.4784 13.616Z" fill="#81b642"/>
<path d="M12.5019 13.9568C12.5019 13.8503 12.5019 13.7367 12.5019 13.6373L12.3737 13.9568H12.5019Z" fill="#81b642"/>
<path d="M11.1796 13.0197C11.1796 13.0197 11.096 13.1049 11.0581 13.1475L11.8705 13.467C11.9546 13.434 12.0337 13.3911 12.1059 13.3392C11.9389 12.9345 11.5288 13.0694 11.1796 13.0197Z" fill="#81b642"/>
<path d="M14.2644 7.23305C14.3145 7.22583 14.3655 7.22583 14.4157 7.23305V7.03425L14.2644 7.23305Z" fill="#81b642"/>
<path d="M99.009 8.32648V8.33358L99.0019 8.35488L99.0161 8.32648H99.009Z" fill="#81b642"/>
<path d="M178.953 10.9748L178.854 11.8197C178.664 11.5925 178.467 11.3866 178.262 11.1736C178.216 11.1239 178.087 11.131 177.996 11.1097C177.988 11.2042 177.988 11.2992 177.996 11.3937C178.092 11.7187 178.171 12.0481 178.231 12.3806C178.231 12.4516 178.034 12.5439 177.92 12.6291C177.411 11.3724 177.707 13.0764 177.366 12.7498C177.024 12.4232 176.204 12.8066 175.847 12.1818C175.688 11.912 175.505 11.3014 174.837 11.6706C174.86 11.5604 174.876 11.449 174.883 11.3369C174.883 10.9109 174.701 11.4008 174.594 11.2943C174.139 10.847 173.835 11.3866 173.486 11.4434C173.425 11.4477 173.364 11.4405 173.307 11.4222C173.249 11.4039 173.197 11.3749 173.152 11.3369C173.152 11.2943 173.152 11.1594 173.205 11.0671C172.81 11.699 172.126 11.4363 171.595 11.3795C171.2 11.3369 170.836 10.9748 170.471 10.7476C170.471 10.7476 170.426 10.6695 170.41 10.634C170.213 10.7476 169.841 10.9109 169.864 10.9819C169.993 11.4079 169.537 11.4718 169.378 11.6919C168.968 11.4434 168.413 11.8907 167.965 11.2872C167.847 11.1581 167.702 11.0526 167.54 10.977C167.377 10.9014 167.199 10.8574 167.018 10.8474C166.836 10.8375 166.655 10.8619 166.483 10.9191C166.312 10.9764 166.155 11.0654 166.022 11.1807C165.915 10.9819 165.87 10.7263 165.695 10.5985C165.285 10.3074 164.807 10.0873 165.323 9.55478C165.323 9.55478 165.209 9.37727 165.141 9.28497V9.51928C165.144 9.54045 165.144 9.56201 165.141 9.58318C164.336 9.07907 164.594 9.75358 164.632 9.98788C164.776 11.0245 163.356 9.87428 163.394 10.6979C163.311 10.6979 163.197 10.6624 163.144 10.6056C162.954 10.3997 162.802 10.3784 162.658 10.5417C162.658 10.5772 162.476 10.5417 162.385 10.5417C162.293 10.5417 162.248 10.492 162.172 10.4707L162.354 10.3855L162.514 10.3074C162.48 10.2758 162.442 10.2494 162.4 10.2293C162.157 10.2293 161.914 10.1938 161.678 10.1938C161.192 10.1938 161.921 11.0884 161.086 10.8399L160.084 10.5275C160.167 10.4565 160.312 10.3926 160.319 10.3074C160.403 9.59738 159.423 9.75358 159.188 9.29207C159.134 9.15423 159.096 9.01143 159.074 8.86607L158.603 9.51928C158.99 9.57608 158.93 9.69678 158.709 9.91688C158.489 10.137 157.426 10.137 157.267 9.91688C156.978 9.47668 156.993 10.0447 156.864 9.98788C156.515 9.83878 156.189 9.65418 155.839 9.52638C155.672 9.46958 155.308 9.46958 155.285 9.52638C154.738 10.9464 154.283 9.83878 153.706 9.52638C153.511 9.41779 153.295 9.34787 153.07 9.32099C152.845 9.29412 152.617 9.31086 152.4 9.37017C151.838 9.63998 151.838 8.85897 151.42 9.08617L151.177 9.23527C151.177 9.11457 150.987 8.94417 151.063 9.17847C151.207 9.60448 150.372 9.29917 150.623 9.66128C150.486 9.66128 149.993 10.0092 150.334 9.47668C149.886 9.25505 149.401 9.1062 148.899 9.03647C148.256 9.12029 147.622 9.26298 147.008 9.46248C146.903 9.47986 146.795 9.47986 146.69 9.46248C146.796 9.31918 146.892 9.16979 146.978 9.01517C147.038 8.87372 147.088 8.7291 147.13 8.58207C147.016 8.65627 146.914 8.74465 146.826 8.84477C146.485 9.34177 146.333 8.13476 145.976 8.75957C145.878 8.89284 145.769 9.01867 145.649 9.13587C145.817 9.18894 145.99 9.22465 146.166 9.24237C146.264 9.24237 146.325 8.83767 146.477 9.18557C146.629 9.53348 146.249 9.44828 146.067 9.44118C145.573 9.44118 144.844 9.54768 144.624 9.30627C144.055 8.68857 143.219 9.10037 142.658 8.69567C142.658 8.69567 142.597 8.69567 142.566 8.73827C142.629 8.8385 142.698 8.93566 142.771 9.02937C142.916 9.18557 143.455 9.12877 143.113 9.53348C143.113 9.53348 142.961 9.53348 142.916 9.53348C142.87 9.53348 142.794 9.35597 142.711 9.33467C142.399 9.24237 142.202 8.95837 141.716 9.20687C141.071 9.53348 140.714 8.39036 139.886 8.71697C139.701 8.77763 139.5 8.78713 139.309 8.74433C139.118 8.70153 138.944 8.60824 138.808 8.47556C138.656 8.35486 138.17 8.54657 137.844 8.63887C137.517 8.73117 137.183 8.89447 136.841 8.97967C136.752 8.84307 136.673 8.70071 136.606 8.55367C136.333 8.82347 136.052 8.44716 135.991 8.48266C135.353 8.85187 134.616 8.56077 133.91 8.83057C133.056 9.02608 132.169 9.06705 131.298 8.95127C130.539 8.95127 131.716 8.53947 131.245 8.56787C130.523 8.64488 129.808 8.76824 129.104 8.93707C129.058 8.93707 129.036 9.00807 129.005 9.04357C128.975 9.07907 129.005 9.00097 129.005 8.98677C129.005 8.97257 129.005 8.74537 129.081 8.70277C129.214 8.64823 129.355 8.61234 129.499 8.59627C129.263 8.43296 129.036 8.15606 128.739 8.12056C128.443 8.08506 128.489 7.97856 128.534 7.81526C128.823 7.81526 129.294 7.89336 129.377 7.77976C129.795 7.13365 130.509 7.97856 130.896 7.49575C130.933 7.56902 130.963 7.64501 130.987 7.72296C130.987 7.72296 130.919 7.80106 130.881 7.79396C130.843 7.78686 130.683 7.79396 130.585 7.79396C130.486 7.79396 130.524 7.87916 130.493 7.92176H131.313C131.367 7.92176 131.412 7.86496 131.465 7.82946V8.07796C132.012 7.93596 131.465 7.15495 132.171 7.11945C131.513 6.96905 130.837 6.89043 130.159 6.88515C129.499 6.94905 128.481 6.75734 128.504 7.83656C127.805 7.59515 128.458 8.26966 128.018 8.39746C127.578 8.52527 127.449 8.31936 127.213 8.12056C127.077 8.06922 126.924 8.06922 126.788 8.12056C126.545 8.97967 125.505 8.07796 125.171 8.69567C125.057 8.62467 124.859 8.99387 124.753 8.55367C124.647 8.11346 124.039 8.37616 123.667 8.39036C123.113 8.39036 122.847 8.77377 122.718 9.22817C122.615 9.26347 122.502 9.26347 122.399 9.22817C122.246 9.01722 122.104 8.79921 121.974 8.57497C122.194 8.49686 122.285 8.36906 122.042 8.24836C121.944 8.19866 121.761 8.24836 121.617 8.30516C121.617 8.06376 121.549 7.81526 121.496 7.59515C121.451 7.41932 121.396 7.24621 121.328 7.07685C121.328 7.18335 121.199 7.31825 121.245 7.38215C121.564 7.86496 120.751 7.80816 120.789 8.13476C120.85 8.61757 120.364 8.33356 120.227 8.36906C119.886 8.45426 119.377 8.47556 119.301 7.94306C119.301 8.09216 119.369 8.29096 119.301 8.36906C119.233 8.44716 118.967 8.50396 118.8 8.56077H119.164C119.236 8.57282 119.305 8.59433 119.369 8.62467C119.369 8.62467 119.369 8.70987 119.369 8.70987C118.899 8.60337 119.142 9.41988 118.61 9.18557C118.527 9.18557 118.504 9.01517 118.451 8.92997H118.914C118.649 8.67988 118.37 8.44289 118.079 8.21996C118.041 8.21996 117.858 8.31226 117.745 8.36906L117.851 8.46136C117.669 8.53881 117.498 8.63656 117.342 8.75247C117.243 8.84477 117.236 9.13587 117.198 9.13587C116.924 9.13587 116.962 9.02227 116.894 8.77377C116.651 7.90756 116.135 9.09327 115.725 8.80927C115.725 8.80927 115.611 8.89447 115.55 8.93707C115.482 8.85709 115.426 8.76869 115.383 8.67437C115.383 8.67437 115.505 8.55367 115.58 8.54657C115.656 8.53947 115.953 8.54657 116.135 8.54657C116.135 8.16316 115.74 8.16316 115.527 8.27676C114.829 8.64597 114.51 7.89336 113.956 7.90046C113.833 7.92297 113.713 7.95871 113.599 8.00696C113.688 8.05969 113.774 8.11656 113.857 8.17736C113.898 8.21017 113.934 8.24845 113.963 8.29096L113.067 8.40456C112.971 8.39951 112.875 8.41404 112.786 8.44716C112.748 8.44716 112.748 8.63177 112.786 8.64597C112.883 8.68448 112.985 8.70844 113.09 8.71697C112.946 8.72757 112.801 8.72757 112.657 8.71697C112.277 8.71697 111.936 8.61757 112.171 8.16316C112.019 8.12766 111.867 8.10636 111.723 8.06376C111.579 8.02116 111.662 7.97146 111.632 7.92176C111.632 8.10636 111.359 8.35486 111.799 8.44716C111.788 8.59256 111.768 8.7372 111.738 8.88027L111.237 8.64597C111.303 8.61226 111.364 8.57177 111.419 8.52527C111.434 8.49111 111.434 8.45292 111.419 8.41876L111.207 7.91466C111.173 8.01372 111.127 8.10897 111.07 8.19866C110.531 8.08506 110.091 8.79507 109.59 8.39746C109.24 8.12056 109.293 8.68857 109.073 8.50396C109.149 8.64597 109.202 8.88027 109.309 8.90867C109.726 9.00807 109.438 9.22107 109.4 9.34177C109.362 9.46248 109.126 9.49088 109.012 9.45538C108.942 9.43283 108.878 9.39457 108.826 9.34387C108.775 9.29318 108.737 9.23155 108.716 9.16427C108.657 8.86616 108.617 8.56508 108.595 8.26256C108.594 8.47268 108.548 8.68048 108.458 8.87317C108.321 9.07907 108.101 9.17847 108.071 8.77377C108.071 8.69567 107.843 8.63887 107.722 8.56787C107.85 8.58223 107.98 8.58223 108.109 8.56787C108.208 8.56787 108.375 8.42586 108.367 8.39746C108.276 8.21286 108.154 8.03536 108.048 7.85786C108.048 7.93596 108.048 8.03536 107.949 8.08506C107.851 8.13476 107.653 8.29096 107.509 8.39746C107.509 8.01406 106.826 8.51106 106.879 8.01406C106.879 7.92886 106.689 7.82236 106.59 7.72296C106.555 7.79045 106.529 7.86209 106.514 7.93596C106.514 7.93596 106.605 7.99276 106.621 8.02826C106.689 8.23416 106.803 8.52526 106.423 8.50396C106.098 8.42913 105.782 8.32202 105.482 8.18446C105.307 8.12766 105.064 8.04956 104.943 8.11346C104.821 8.17736 104.502 8.44716 104.98 8.56077L104.943 8.68857C104.729 8.66503 104.523 8.6023 104.335 8.50396C104.092 8.29806 103.804 8.50396 103.811 8.56077C103.978 10.1512 102.293 8.80217 101.951 9.49088C101.951 9.49088 101.882 9.44828 101.882 9.41988C101.87 9.29519 101.886 9.16949 101.928 9.05067C102.056 8.86345 102.196 8.68329 102.346 8.51106H102.239C102.057 9.15007 100.721 8.11346 100.873 9.27077C100.873 9.37017 100.781 9.56898 100.698 9.58318C100.376 9.62711 100.051 9.65318 99.7261 9.66128C99.8703 9.52638 99.9918 9.32047 100.166 9.27077C100.237 9.25823 100.304 9.23101 100.361 9.19114C100.419 9.15126 100.466 9.09976 100.5 9.04044C100.533 8.98111 100.552 8.91549 100.555 8.84844C100.558 8.78138 100.544 8.71461 100.516 8.65307C100.461 8.45575 100.396 8.26139 100.318 8.07086C100.318 8.31226 100.25 8.55367 100.212 8.78087C100.212 8.78087 100.212 8.83057 100.166 8.82347C100.121 8.81637 100.075 8.82347 100.075 8.78797C99.9538 8.41876 99.8855 8.15606 99.392 8.59627C99.0199 8.91577 98.9819 8.59627 99.0199 8.31936L99.2097 7.69456L99.969 7.99986C99.9493 8.05538 99.9265 8.10989 99.9007 8.16316L100.136 8.09926C100.078 8.00191 100.037 7.89642 100.015 7.78686C100.015 7.55255 100.015 7.31115 100.015 7.07685C100.075 7.07685 100.151 7.07685 100.189 7.07685C100.286 7.14678 100.377 7.22268 100.463 7.30405C100.387 7.19045 100.349 7.02715 100.235 6.97745C100.121 6.92775 99.8323 6.88515 99.7564 6.97745C99.6805 7.06975 99.521 7.49575 99.4679 7.48865C98.906 7.39635 99.5286 7.02715 99.2932 6.82125C99.0578 6.61534 99.2401 7.39635 98.9667 6.94905C98.8301 6.72894 98.9212 6.48754 98.4428 6.46624C97.6835 6.46624 97.5924 6.67924 97.8202 7.17625C97.9142 7.35155 98.0261 7.51798 98.1543 7.67325C98.2638 7.60235 98.3655 7.52149 98.458 7.43185C98.458 7.43185 98.42 7.32535 98.3745 7.27565C98.3289 7.22595 98.1467 7.04845 98.0252 6.93485C98.1163 6.93485 98.2682 6.82835 98.2833 6.84965C98.4276 6.99875 98.6326 7.16915 98.6554 7.34665C98.701 7.68745 98.2454 8.14896 98.9971 8.27676C98.8528 8.58207 98.5643 8.32646 98.4732 8.27676C97.4557 7.83656 97.8657 8.68857 97.6455 8.98677L97.5848 9.07197C97.3494 8.78087 96.8255 8.95837 96.7571 8.90157C96.2712 8.53237 95.0791 9.15007 95.1702 8.02826C94.8057 9.13587 94.8589 7.65195 94.6083 7.95016H94.4792C94.4454 8.03205 94.425 8.11821 94.4185 8.20576C95.0942 8.46136 93.9097 8.63887 94.4185 8.88027C94.1422 8.86916 93.8766 8.77728 93.6591 8.61757C93.1544 8.42417 92.6003 8.37236 92.0646 8.46846C91.5938 8.53237 92.5429 8.83767 91.9886 9.17847C91.0699 9.76068 91.2749 8.53237 90.7206 8.69567C90.8193 8.24126 90.2802 8.74537 90.2726 8.46136C90.227 8.55367 90.2119 8.69567 90.1359 8.73117C89.7791 8.88027 89.8398 8.28386 89.3766 8.42586C88.9134 8.56787 88.2908 8.42586 87.7669 8.49686C87.2429 8.56787 88.0478 8.75247 87.7669 8.93707C87.7213 8.97257 87.7137 9.06487 87.6909 9.13587C87.41 8.72407 86.9316 9.19977 86.6659 8.97257C86.1951 8.51106 85.8382 8.48266 85.5725 8.97257C85.5191 9.04578 85.4374 9.09672 85.3447 9.11457C85.2535 9.11457 85.1624 9.03647 85.0789 9.00097C85.1579 8.98359 85.2344 8.95737 85.3067 8.92287C85.3207 8.89891 85.328 8.87206 85.328 8.84477C85.328 8.81748 85.3207 8.79063 85.3067 8.76667C85.0258 8.48976 84.6917 7.97146 84.4639 8.00696C84.0538 8.06376 84.2816 7.33955 84.0235 7.73006C83.8412 7.99986 84.0235 8.44006 84.069 8.85187V8.89447C83.7729 8.85187 83.4464 8.73827 83.3097 9.10037C83.3097 9.00807 83.3097 8.86607 83.3097 8.83767C83.2581 8.80467 83.1995 8.78251 83.1379 8.7727C83.0763 8.7629 83.0132 8.76568 82.9528 8.78087C82.6945 8.90009 82.3989 8.92839 82.12 8.8606C81.8412 8.79281 81.5977 8.63346 81.4342 8.41166C81.0546 9.05777 80.3712 8.41166 79.9156 8.69567C79.9156 8.69567 79.9156 8.73827 79.9156 8.75957C78.8146 8.28386 77.7515 9.00097 76.6429 8.83767C76.175 8.75344 75.693 8.76555 75.2306 8.87317C74.873 9.03561 74.5551 9.26523 74.2967 9.54768C74.2283 9.60448 74.2587 9.75358 74.2435 9.86008C74.0841 9.68968 73.5374 9.97368 73.6588 9.46248C73.6588 9.41988 73.4994 9.34177 73.4159 9.28497C73.3916 9.32495 73.3737 9.368 73.3627 9.41278C73.3627 9.53348 73.3627 9.65418 73.3627 9.77488C73.2564 9.67548 73.0818 9.59738 73.059 9.48378C73.0362 9.37017 72.9755 9.17137 73.3096 9.10747C73.917 8.98677 73.6892 8.81637 73.3096 8.70277C73.226 9.20687 73.0134 8.70277 72.8692 8.70277C72.1098 8.78087 71.3505 8.82347 70.5912 8.88027L68.6778 9.05067C68.8828 9.91688 67.9944 9.17137 67.8349 9.50508C67.8021 9.50886 67.769 9.50886 67.7362 9.50508C67.7362 8.51106 66.901 9.07197 66.4302 8.97967C66.377 8.97967 66.2707 9.11457 66.2252 9.20687C66.2207 9.23901 66.2254 9.27167 66.2387 9.30159C66.2521 9.3315 66.2736 9.3576 66.3011 9.37727C66.4399 9.39147 66.5799 9.39147 66.7187 9.37727L66.0657 9.66838L65.8987 9.34887L65.5646 8.63887V9.28497C65.5038 9.28497 65.4279 9.28497 65.3975 9.24947C65.0027 8.87317 65.0331 8.90157 64.5471 9.24947C64.3876 9.36307 64.0384 9.24947 63.7878 9.24947C63.0285 9.40568 62.2692 9.58318 61.5098 9.77488C61.4415 9.77488 61.4035 9.89558 61.3504 9.95948L61.7452 10.1299C61.711 10.1926 61.6703 10.252 61.6237 10.3074C61.4646 10.4433 61.261 10.5249 61.046 10.5391C60.831 10.5532 60.6172 10.4991 60.4392 10.3855C60.7657 10.3855 60.705 10.3287 60.8341 10.066C60.9631 9.80328 61.3504 9.72518 61.6389 9.56898C61.7344 9.55402 61.832 9.55402 61.9275 9.56898C61.9026 9.47434 61.8696 9.38174 61.8288 9.29207C61.5858 8.87317 61.2821 9.49088 61.0694 9.29207C60.9404 9.40568 60.3557 8.89447 60.6215 9.54768C60.4924 9.54768 60.2798 9.68258 60.2418 9.63998C59.2167 8.62467 57.8348 9.63998 56.6654 9.19267C56.3086 9.05777 55.6631 9.54058 55.1468 9.73938C55.367 10.137 54.9798 10.0589 54.7899 10.0589C54.2964 10.0589 55.3063 9.49798 54.6305 9.63288C53.9547 9.76778 54.0154 10.3429 54.6305 10.8115C54.6975 10.8749 54.7402 10.9573 54.752 11.0458C54.752 11.0458 54.6533 11.131 54.5925 11.1736L54.4558 10.9677C54.4319 10.9382 54.4038 10.9119 54.3723 10.8896C54.3505 10.9249 54.3351 10.9632 54.3267 11.0032C54.3267 11.1452 54.3268 11.2943 54.3875 11.4363L53.7117 10.9251C53.3321 10.6411 53.7952 11.2517 53.4915 11.0813C53.4459 11.0813 53.3321 11.1239 53.2485 11.1452C53.6434 11.4008 52.6714 11.2162 53.1118 11.486C53.1577 11.5115 53.206 11.5329 53.2561 11.5499L52.9828 11.6564C52.9296 10.8115 52.3146 11.7061 51.9273 11.4221C51.5401 11.1381 50.758 11.7061 50.2796 11.5428C49.5203 11.2943 48.9508 11.8339 48.3206 11.6777C47.9886 11.6098 47.6866 11.4488 47.455 11.2162C47.0829 10.8257 47.1512 11.6493 46.6957 11.7629C45.9363 11.9617 46.7716 11.2659 46.3843 11.4079C45.5187 11.7061 46.5666 11.2091 46.3008 11.2517C46.1715 11.2843 46.0353 11.2843 45.906 11.2517C45.758 11.1695 45.6204 11.0718 45.4959 10.9606C45.42 11.0671 45.2606 11.1949 45.2833 11.2659C45.3637 11.4413 45.4683 11.606 45.5947 11.7558C44.9492 11.7132 44.1671 11.8623 43.704 11.5925C43.051 11.202 42.732 11.1665 42.3979 11.7984C42.0183 11.2446 41.6386 12.3309 41.054 11.7984C40.811 11.5641 39.8011 11.9759 39.1405 12.0824C39.0704 12.096 38.998 12.096 38.9279 12.0824C39.2848 12.0824 38.404 11.5641 39.1253 11.7061C39.1785 11.7061 39.2544 11.6067 39.3151 11.557C39.224 11.557 39.1101 11.4576 39.0494 11.486C38.8398 11.5807 38.6455 11.7026 38.4723 11.8481C38.4267 11.8481 38.5179 12.0469 38.5482 12.1534C38.1838 12.0966 37.7889 12.0327 37.4472 11.9901C37.2204 11.9619 36.9906 11.9619 36.7639 11.9901C35.8755 12.0895 34.9947 12.2528 34.1063 12.3167C33.2179 12.3806 32.5117 12.3167 31.7068 12.3167C31.1981 12.3167 30.6894 12.3167 30.1882 12.3735C29.6961 12.3322 29.2001 12.3561 28.7151 12.4445C27.5999 12.7312 26.4313 12.787 25.2906 12.6078C24.668 12.5368 23.9543 12.7711 23.4607 12.4871C22.9671 12.2031 22.7014 13.0125 22.3749 12.7285C21.6763 12.125 21.0385 13.2184 20.2184 12.7285C19.9451 12.5652 19.7249 12.0185 19.4136 12.1747C18.958 12.3806 18.7074 12.1747 18.3505 12.0753C17.9936 11.9759 17.5912 12.2102 17.3406 12.0753C16.887 11.836 16.4597 11.5553 16.065 11.2375C16.0353 11.2292 16.0036 11.2292 15.9739 11.2375C15.7992 12.2883 15.412 11.8978 15.0247 11.6067L14.7742 10.2293C14.8637 10.318 14.9846 10.3734 15.1144 10.3852C15.2443 10.3969 15.3743 10.3642 15.4803 10.2932C16.2396 9.92398 16.9989 10.7689 17.7583 10.2151C17.7583 10.2151 17.9329 10.3784 17.9633 10.3642C18.1987 10.2435 18.6163 10.0731 18.6011 9.96658C18.5404 9.59028 18.1987 9.89558 17.9785 9.86718C17.7583 9.83878 17.5001 9.86718 17.6975 9.55478C17.7755 9.42046 17.8416 9.28035 17.8949 9.13587C17.2799 9.30627 16.513 8.94417 16.0042 9.56898C15.9359 9.65418 15.7461 9.66838 15.6094 9.71808C15.5978 9.63572 15.5694 9.5562 15.5259 9.48378C15.4641 9.37363 15.3725 9.28059 15.2601 9.21397C15.2146 9.21397 15.0095 9.27077 15.0095 9.30627C15.0095 10.0163 14.8653 9.78908 14.7058 9.56898L14.4856 7.73716C14.5616 7.73716 14.4856 7.33955 14.5691 7.46735C14.5382 7.39268 14.4946 7.32316 14.4401 7.26145V7.26145V7.06265C14.4821 6.9975 14.5332 6.93782 14.5919 6.88515C14.8197 6.69344 15.4879 6.77864 15.1007 6.17514C15.0551 6.11124 15.1007 5.98344 15.1007 5.89823C15.1007 5.81303 15.2373 5.89823 15.3133 5.85563C15.2863 5.90704 15.2683 5.96218 15.2601 6.01894C15.3057 6.55144 15.7081 5.79883 15.7992 6.12544C15.8524 6.31004 15.7992 6.62244 15.9283 6.65794C16.3156 6.77864 16.4067 6.57984 16.3763 6.24614C16.3459 5.91243 16.3763 5.86273 17.1356 5.94793C17.2495 5.94793 17.3862 5.57163 17.5608 5.53613C17.9101 5.45093 18.3581 5.20953 18.6087 5.69943C18.6087 5.69943 18.7378 5.69943 18.7606 5.69943C19.0035 5.90533 18.5935 4.89712 19.0946 5.55743C19.2946 5.48503 19.4815 5.38447 19.6489 5.25923C20.3703 4.62022 19.8464 5.81303 20.2792 5.57873C20.2336 5.92663 20.2792 6.06154 20.5601 5.67103C20.5601 5.67103 20.8487 5.67103 20.9777 5.75623C21.1068 5.84143 21.0233 5.90533 21.0385 5.98344C20.9322 5.98344 20.8335 5.93373 20.7272 5.91953C20.6209 5.90533 20.6361 5.91953 20.5829 5.96924C20.7575 6.11124 20.9094 6.35974 21.0992 6.38104C21.8585 6.47334 22.6862 6.51594 23.4835 6.53724C23.6505 6.53724 23.7872 6.40944 23.4835 6.35264C23.3906 6.3363 23.2954 6.3363 23.2025 6.35264C22.8532 6.45204 22.4432 6.61534 22.4812 6.09704C22.4812 5.93373 23.2405 5.89113 23.362 5.68523C23.7189 4.89002 24.7439 6.23194 24.9489 5.23083C24.9755 5.16197 25.0086 5.09544 25.0477 5.03202C24.9521 5.01781 24.8547 5.01781 24.7591 5.03202C24.2883 5.25923 24.2883 5.26633 23.8176 4.79772C24.2864 4.8549 24.7611 4.8549 25.2299 4.79772C25.9133 4.62022 25.1464 5.36573 25.5868 5.18823C25.8146 5.09593 25.9209 4.79062 26.1411 4.67702C26.3673 4.58986 26.6101 4.54638 26.8548 4.54922C26.7409 4.71252 26.627 4.88292 26.5283 5.05332C26.5283 5.05332 26.5283 5.13853 26.5891 5.18113C26.7561 5.08882 26.9915 4.88292 27.0902 4.91842C27.8495 5.26633 28.1912 4.60602 28.6088 4.32912C29.4137 3.81791 32.2915 4.04511 32.8078 4.77642C33.3242 5.50773 32.8078 4.47112 33.0584 4.67702C33.6279 5.19533 33.9544 4.52082 33.9544 4.35752C33.9544 3.45581 34.5694 4.27942 34.7137 4.12321C35.1161 3.77531 35.5869 3.92441 36.0273 3.86051C36.1032 3.86051 36.2247 3.86051 36.2399 3.89601C36.5588 4.81902 36.9992 3.186 37.3485 3.93861C37.5535 3.2286 38.4799 4.72672 38.5558 3.62621C38.5103 4.33622 39.4518 3.89601 39.6568 4.33622C39.5733 4.33622 39.4366 4.33622 39.429 4.33622C39.4214 4.33622 39.3911 4.54922 39.3911 4.61312C39.5421 4.74695 39.7075 4.86591 39.8846 4.96812C39.8391 4.86872 39.7935 4.76932 39.7555 4.66992C39.7176 4.57052 39.8315 4.59892 39.877 4.59892C40.2111 4.59892 40.6363 4.45692 40.8641 4.59892C41.3881 4.82612 41.2742 5.13143 40.773 5.30893C40.773 5.35863 40.8338 5.44383 40.8565 5.44383L41.8664 5.30893L41.7753 4.84032C41.7753 4.68412 41.6235 4.44982 41.6918 4.38592C41.9955 4.10191 42.3068 3.55521 42.8004 4.22261C42.8004 4.22261 42.9447 4.18001 43.013 4.15161L43.423 3.95991C43.36 4.04193 43.3066 4.13 43.2636 4.22261C43.218 4.35042 43.1345 4.57762 43.1876 4.61312C43.4139 4.73522 43.6531 4.83515 43.9014 4.91132L43.4458 4.54922C43.3927 4.50662 43.3319 4.47822 43.2788 4.44272L43.3623 4.37882C43.8786 4.74092 44.4405 4.55632 44.9872 4.47112L45.1087 4.25102C45.1694 4.25102 45.1922 4.19421 45.1998 4.16581C45.5263 3.85341 45.8528 3.54101 46.1945 3.2499C46.3337 3.17203 46.4847 3.11457 46.6425 3.0795C46.6425 3.49131 47.4018 2.9943 47.2803 3.54101C47.2803 3.64751 47.4322 3.78951 47.5233 3.91731C47.5118 3.78737 47.5118 3.65675 47.5233 3.52681C47.5233 3.43451 47.5689 3.2641 47.6068 3.2641C48.1004 3.2073 48.6015 3.186 49.1255 3.1505C49.0604 3.28143 49.0144 3.41993 48.9888 3.56231C49.0021 3.71138 49.0406 3.85755 49.1027 3.99541C49.1027 3.99541 49.1634 3.99541 49.2014 3.99541C49.2394 3.99541 49.2469 3.71851 49.2849 3.71141C49.581 3.71141 49.6722 4.18711 50.1202 3.93861C50.3935 3.78241 50.7276 3.3067 50.5985 3.0156C50.5985 2.9659 50.5985 2.8381 50.6745 2.831C51.0313 2.7174 51.6084 2.45469 51.7375 2.5683C52.1399 2.9233 52.4361 2.31979 52.7626 2.5683C52.8711 2.62776 52.989 2.67088 53.1118 2.6961L52.8005 3.1292C52.7884 3.03551 52.768 2.94291 52.7398 2.8523C52.7398 2.8026 52.6259 2.7245 52.6107 2.7316C52.4664 2.8168 52.3298 2.9091 52.1931 3.0014C52.2262 3.02385 52.2619 3.0429 52.2994 3.0582C52.3808 3.0846 52.4647 3.10362 52.55 3.115C52.55 3.1647 52.512 3.2357 52.474 3.2499C52.3768 3.29247 52.2699 3.31198 52.1627 3.3067C52.0276 3.27722 51.8955 3.23683 51.7679 3.186L51.6767 3.77531C51.8514 3.77531 52.0336 3.77531 52.2083 3.83921C52.3829 3.90311 52.6639 3.88891 52.6639 3.93151C52.6639 4.31492 52.4361 3.93151 52.3298 4.01671C52.2235 4.10191 52.2235 4.10191 52.1627 4.13741C52.3631 4.22386 52.58 4.27213 52.8005 4.27942C53.4611 4.20841 54.1217 4.09481 54.7823 3.98121C54.7823 3.98121 54.8279 3.86761 54.7823 3.84631C54.7358 3.75352 54.6654 3.673 54.5773 3.61201C54.0078 3.47001 54.5773 2.973 54.2129 2.76L54.8431 2.9943L54.6229 3.2783C54.6229 3.2783 54.6229 3.3209 54.6684 3.3422C54.714 3.36351 54.8583 3.257 54.881 3.1931C54.9216 3.04957 54.9395 2.90127 54.9342 2.7529C54.9454 2.6514 54.9454 2.54909 54.9342 2.44759C55.0025 2.4902 55.0709 2.5399 55.1392 2.5754L56.9919 3.39191C57.1742 2.03579 57.6374 3.257 57.9715 3.2996C58.6548 3.38481 58.0778 2.9446 58.222 2.831C58.8143 2.38369 59.5584 2.5825 60.2038 2.44049C60.8113 2.18576 61.4754 2.07131 62.1401 2.10679C62.3396 2.16052 62.5349 2.22695 62.7247 2.30559C62.6564 2.37659 62.5729 2.5115 62.5273 2.4973C62.3866 2.46115 62.2532 2.40358 62.1325 2.32689V2.7955C62.4274 2.62043 62.7372 2.46844 63.0588 2.34109C63.2563 2.28429 63.5752 2.5257 63.6359 2.5683C64.1219 2.9162 64.1219 2.01449 64.5243 2.34109C64.5243 2.34109 64.6534 2.34109 64.7217 2.34109C64.6858 2.4045 64.6425 2.46403 64.5927 2.5186C64.4864 2.6109 64.3573 2.6819 64.2662 2.7742C64.175 2.8665 64.3725 2.9091 64.4408 2.9801C64.5833 2.88314 64.7178 2.77634 64.8432 2.6606C64.9571 2.5399 65.0255 2.36949 65.147 2.25589C65.2684 2.14229 65.4279 2.37659 65.4811 2.41209C65.9974 2.6961 65.276 2.4902 65.3444 2.6251C65.4127 2.76 65.481 2.8878 65.5494 2.8807C65.7772 2.8807 66.0353 2.7529 66.2328 2.8026C66.4302 2.8523 66.5517 3.0724 66.6656 3.2357C66.7795 3.39901 66.7111 3.47001 66.7415 3.59071C66.7914 3.60187 66.8435 3.60187 66.8934 3.59071L67.5919 3.3351L67.2123 3.64751C67.2123 3.64751 67.2123 3.72561 67.2123 3.76111C67.4629 3.76111 67.7134 3.76111 67.9716 3.76111C68.0323 3.76111 68.0931 3.69011 68.1462 3.65461C67.5692 3.76111 68.7765 2.6109 67.6451 3.0866C67.6451 3.0866 67.2275 3.044 67.4932 2.831C67.5692 2.7671 67.7742 2.7813 67.7894 2.7387C67.926 2.27009 66.62 2.33399 67.2654 1.79439C67.5312 1.58138 67.8349 2.09969 67.8805 2.45469C67.8805 2.45469 67.9716 2.5044 68.0172 2.5257C68.0661 2.45058 68.1093 2.37228 68.1462 2.29139C68.1787 2.19852 68.204 2.10361 68.2222 2.00739C68.3683 2.14414 68.5029 2.29132 68.6246 2.44759C68.6246 2.4973 68.5715 2.6109 68.5335 2.6961C68.4955 2.7813 68.6398 2.6961 68.6398 2.6961C68.6832 2.5824 68.7187 2.46618 68.7461 2.34819L68.8296 1.98609C68.979 2.03615 69.131 2.07881 69.2852 2.11389C69.7712 2.21329 70.2951 2.46179 70.5533 1.76599C70.5533 1.65239 71.0164 1.60978 71.267 1.61688C71.3733 1.61688 71.4796 1.82279 71.5859 1.93639C71.4239 1.90272 71.2584 1.88605 71.0924 1.88669C70.9861 1.88669 70.8114 1.99319 70.8114 2.04999C70.8114 2.35529 70.0521 2.5612 70.6444 2.9588C70.857 3.1008 70.8798 3.0014 70.8874 2.8523C70.895 2.7032 70.8342 2.6961 70.8342 2.618C70.8342 2.02159 71.5024 2.35529 71.8289 2.17779C72.2997 1.90799 72.5882 1.94349 71.8289 1.76599C71.8289 1.76599 71.8289 1.69499 71.8289 1.68789C72.0786 1.62391 72.3321 1.57412 72.5882 1.53878C72.6262 1.53878 72.6945 1.70209 72.7173 1.79439C72.7401 1.88669 72.7173 1.89379 72.6566 1.94349C72.5958 1.99319 72.8084 1.94349 72.8464 1.89379C73.3399 1.38968 73.7879 1.47488 74.1904 1.97189C74.2283 2.01449 74.1904 2.07839 74.1904 2.13519L73.9398 2.04289L73.8107 1.96479C73.7348 2.07839 73.5981 2.20619 73.6133 2.31979C73.6285 2.43339 73.8107 2.4902 73.917 2.5825C73.917 2.5186 73.8411 2.39789 73.8411 2.39789C74.0542 2.30702 74.2721 2.22644 74.4941 2.15649C74.4941 2.15649 74.5776 2.26299 74.5624 2.29849C74.5472 2.33399 74.0992 2.44049 74.4485 2.6535L74.1904 2.8949L74.8662 3.0014C74.8206 2.7813 74.6535 2.4902 74.7599 2.35529C75.005 1.92041 75.3594 1.54765 75.7925 1.26898C76.119 1.12698 76.0735 1.52458 76.0203 1.75179L76.1342 1.78729C76.2633 0.992078 77.3187 1.78729 77.5541 1.15538C77.6148 1.1506 77.6757 1.1506 77.7364 1.15538C77.668 1.60268 78.4121 0.821676 78.2451 1.41808C78.4961 1.4561 78.7501 1.4751 79.0044 1.47488L81.2823 1.30448C81.8702 1.31417 82.4582 1.29521 83.0439 1.24768C84.5018 1.00628 85.899 0.814576 87.3568 1.40388C87.858 1.60978 88.7084 1.04178 89.3538 1.11988C89.8246 1.17668 90.4169 0.686774 90.7965 1.27608C91.4799 2.35529 91.9203 0.984978 92.5885 1.14118C93.2322 1.15751 93.8763 1.13617 94.5172 1.07728C94.8425 1.07792 95.1613 1.16243 95.4386 1.32151C95.7159 1.48059 95.9409 1.70809 96.0889 1.97899C96.0889 2.01449 96.2104 2.01449 96.2712 2.02869C96.2786 1.96973 96.2786 1.91015 96.2712 1.85119C96.2712 1.72339 96.2028 1.60268 96.1649 1.48198C96.3887 1.50617 96.6098 1.54894 96.8255 1.60978C96.8862 1.60978 96.8862 1.80149 96.909 1.90089C96.9773 1.74469 97.1444 1.56008 97.0988 1.43228C96.8558 0.651274 97.767 1.58138 97.7063 1.10568H99.5514C99.9083 1.10568 99.3008 1.35418 99.7261 1.48908C100.485 1.73759 101.123 1.32578 101.814 1.27608C102.194 1.27608 102.642 0.899777 102.968 1.37548C103.659 0.786175 103.196 1.87249 103.576 1.70209C103.705 1.64529 103.879 1.54588 103.91 1.43938C103.94 1.33288 103.302 1.18378 103.659 1.12698C104.041 1.0562 104.435 1.05677 104.816 1.12866C105.198 1.20056 105.561 1.34235 105.884 1.54588C105.98 1.6248 106.066 1.71285 106.142 1.80859C106.135 1.71879 106.135 1.62859 106.142 1.53878C106.142 1.41098 106.142 1.28318 106.142 1.16248C106.203 1.26898 106.256 1.38258 106.324 1.48198C106.393 1.58138 106.324 2.00029 106.689 1.82989C106.879 1.74469 106.932 1.44648 107.107 1.33288C107.281 1.21928 107.486 1.33288 107.684 1.33288L107.456 1.85119C107.322 1.86393 107.19 1.88769 107.061 1.92219C106.967 1.97084 106.88 2.03049 106.803 2.09969L108.321 2.28429C108.367 2.28429 108.428 2.18489 108.481 2.12809L108.086 1.88669C107.911 2.44759 107.76 2.07839 107.608 1.88669C107.767 1.63109 108.192 1.24058 108.283 1.53878C108.375 1.83699 108.785 1.84409 108.868 1.87249C109.392 2.09969 108.997 1.56008 109.263 1.36838C109.977 0.871376 109.878 1.82279 110.303 1.70209C110.402 1.70209 110.394 2.14229 110.501 1.90089C110.607 1.65949 110.789 1.70919 110.873 1.60978C111.237 1.18378 111.473 0.899777 112.08 1.46778C112.255 1.63109 112.999 1.27608 113.485 1.26188C114.168 1.26188 115.003 0.977878 115.345 1.84409C115.345 1.84409 115.482 1.84409 115.55 1.88669C115.687 1.17668 115.922 1.63819 116.309 1.75889C116.697 1.87959 116.97 1.37548 117.54 1.44648C118.659 1.5648 119.788 1.58381 120.911 1.50328C121.488 1.50328 122.042 1.98609 122.612 1.53878C122.612 1.53878 122.688 1.65239 122.733 1.65239C122.779 1.65239 122.999 1.58848 123.12 1.61688C123.584 1.70209 124.054 1.80149 124.51 1.92219C124.814 2.00739 124.654 1.58848 125.095 1.64529C126.291 1.74837 127.493 1.79103 128.694 1.77309H130.463L132.065 1.82989C131.966 2.14229 132.361 2.09969 132.392 2.05709C133.037 1.34708 133.766 2.6464 134.434 2.00029C134.495 1.94349 134.981 2.13519 135.194 2.29849C135.558 2.5683 135.907 2.43339 136.249 2.34109C137.298 2.13356 138.385 2.15787 139.423 2.41209C139.985 2.4973 140.562 2.4831 141.131 2.5257C141.164 2.53315 141.195 2.54806 141.22 2.56912C141.245 2.59018 141.264 2.61672 141.276 2.6464C141.315 2.83407 141.343 3.02372 141.359 3.2144C141.8 3.0582 141.359 2.7671 141.488 2.5541C141.491 2.5329 141.491 2.51139 141.488 2.49019L142.035 2.9304C142.08 2.8239 142.111 2.618 142.172 2.6109C142.576 2.51839 142.996 2.49435 143.409 2.5399C144.017 2.6464 144.632 2.5825 145.3 2.7316C146.483 2.90776 147.679 2.99797 148.876 3.0014C149.914 2.98668 150.95 3.09402 151.959 3.3209C152.597 3.54101 153.121 3.1505 153.668 3.39901C153.964 3.53391 154.359 3.81791 154.571 3.73981C155.148 3.52681 155.33 3.98831 155.741 4.10191C156.697 4.38592 157.624 3.71851 158.596 4.10191C158.869 4.20841 159.355 3.98121 159.712 3.86761C160.069 3.75401 159.507 4.39302 160.152 4.19421C161.227 3.88183 162.39 3.98144 163.387 4.47112C163.888 4.71962 164.055 4.72672 164.359 4.40722C164.435 4.50662 164.518 4.69832 164.587 4.69832C165.171 4.69832 165.756 4.54922 166.341 4.55632C167.253 4.56077 168.163 4.62244 169.066 4.74092C170.836 5.01072 172.567 5.50063 174.382 5.40833C174.245 6.11834 175.088 5.13143 175.042 5.70653C175.171 5.74967 175.303 5.78291 175.437 5.80593C175.38 5.74515 175.327 5.68113 175.278 5.61423C175.278 5.61423 175.232 5.52903 175.278 5.51483C175.293 5.49643 175.313 5.48126 175.335 5.47026C175.357 5.45926 175.382 5.45268 175.407 5.45093L176.66 5.89113C176.713 5.89113 176.766 5.93373 176.804 5.92663L178.641 5.64263C178.687 5.64263 178.71 5.45093 178.733 5.45093C178.902 5.45381 179.069 5.48508 179.226 5.54323C179.226 5.82013 179.348 5.89823 179.507 5.91953L178.953 10.9748ZM36.7563 5.00362L37.6067 5.08172L37.8724 4.88292C37.5687 4.65572 37.265 4.25102 36.9613 4.25102C36.1336 4.25812 37.4169 4.85452 36.7563 5.00362ZM27.7584 7.74426L28.0014 7.66616C28.2216 8.08506 28.7607 7.66616 29.0644 7.92886L29.2391 7.80106C29.0037 7.51705 28.6772 7.41765 28.0014 7.66616V7.62355C28.0394 7.62355 28.0014 7.62355 28.0014 7.62355L27.7584 7.74426ZM21.608 10.0802C21.7214 10.2781 21.8646 10.4598 22.0332 10.6198L22.5419 10.0305C22.3361 9.91369 22.1171 9.81845 21.8889 9.74648C21.8282 9.73228 21.5776 10.0092 21.608 10.0802ZM19.5502 9.37017C19.6565 9.18557 19.8995 8.86607 19.8464 8.82347C19.3149 8.36196 18.7378 9.39858 18.1683 8.82347L17.9633 8.99387C18.3581 9.72518 19.2085 8.72407 19.5502 9.39147V9.37017ZM19.6489 10.7121C19.5806 10.6482 19.4895 10.4991 19.4743 10.5062C19.3073 10.5772 19.1478 10.6695 18.9883 10.7547L19.5882 11.3156L19.7628 11.0955C19.6589 11.0603 19.5615 11.01 19.4743 10.9464C19.2921 10.7263 20.0286 11.0316 19.6489 10.7121ZM20.6588 10.0802C20.8259 10.0802 20.9626 9.84588 21.1068 9.71808L19.5123 9.86718L19.3984 10.1299C19.8294 10.1432 20.2608 10.1266 20.6892 10.0802H20.6588ZM24.8882 11.5783C24.6729 11.5374 24.4546 11.5113 24.2352 11.5002L24.4782 11.6422L24.6224 11.7203C24.5118 11.7738 24.3944 11.8143 24.2732 11.841C24.1972 11.841 24.1137 11.7984 24.0378 11.77C23.3696 11.5428 22.7545 11.06 21.9573 11.4292C21.532 11.273 21.1979 11.2801 21.0233 11.7558C21.1868 11.7513 21.3496 11.7323 21.5093 11.699C21.668 11.6235 21.8181 11.5331 21.9573 11.4292V11.4292C22.0028 11.557 22.5495 11.3653 22.2002 11.7416C22.9216 11.8552 23.6581 11.9546 24.3643 12.1108C24.5465 12.1534 24.5161 11.6777 24.706 12.0398C24.7819 11.9901 24.9034 11.9475 24.9186 11.8907C24.9338 11.8339 24.9641 11.5925 24.8882 11.5783ZM29.52 11.3795L28.3583 11.3369C28.3583 11.3369 28.2368 11.4647 28.2444 11.5286C28.247 11.6199 28.2879 11.7066 28.3583 11.77C28.4969 11.886 28.6441 11.9927 28.7987 12.0895C28.7987 12.0398 28.9126 11.9546 28.905 11.9404C28.1457 11.1878 29.0948 11.5357 29.3454 11.4576L29.52 11.3795ZM29.3606 9.24947C29.4213 9.29207 29.4669 9.34887 29.52 9.39147C29.5732 9.22817 29.6263 9.05777 29.6643 8.88737C29.6643 8.88737 29.5276 8.81637 29.4517 8.81637C29.3757 8.81637 29.2163 8.81637 29.0948 8.81637C29.0899 8.7644 29.0899 8.71213 29.0948 8.66017C29.1984 8.66723 29.3025 8.66723 29.4061 8.66017C30.1123 8.48976 30.4767 8.51816 29.8313 9.19267C29.8313 9.19267 29.8313 9.32047 29.8313 9.34177C29.8313 9.36307 30.0515 9.44118 30.0743 9.41988C30.2186 9.25657 30.3401 9.07197 30.4692 8.90157C30.173 8.81637 30.4691 8.19156 29.7858 8.39036C29.5276 8.47556 29.1707 8.27676 28.8518 8.28386C28.5329 8.29096 28.214 8.28386 28.3583 8.70277C27.4623 8.13476 26.5587 9.05777 25.6475 8.70277C25.5184 8.65307 25.2755 8.79507 25.116 8.89447C24.9565 8.99387 25.0249 9.10037 25.0628 9.17137C25.1614 9.30412 25.2732 9.42775 25.3969 9.54058C25.1464 9.54058 24.8882 9.46248 24.6376 9.44828C24.4202 9.43412 24.202 9.43412 23.9846 9.44828C23.9846 9.49798 23.9846 9.58318 23.9846 9.59028C24.1752 9.65542 24.3706 9.70762 24.5693 9.74648C24.7212 9.74648 24.8882 9.74648 25.0477 9.74648C25.0777 9.74032 25.1088 9.74032 25.1388 9.74648C25.0704 9.80328 24.9414 9.89558 24.9489 9.90978C25.078 10.0873 24.3339 9.86718 24.7971 10.1725C24.425 10.2364 24.3871 10.4423 24.5313 10.6979C24.5313 10.7476 24.7136 10.7689 24.8047 10.7547C25.0325 10.7192 25.2603 10.6624 25.4881 10.6127C25.4045 10.6979 25.3438 10.8044 25.2451 10.847C25.032 10.9379 24.814 11.0184 24.5921 11.0884C24.7776 11.1475 24.9733 11.174 25.1692 11.1665C25.4039 11.1091 25.6152 10.988 25.7766 10.8186C26.3157 10.1654 25.2755 10.35 25.2147 10.0092C26.1107 10.2648 25.8298 9.29917 26.4448 9.08617C27.0598 8.87317 27.5306 9.02937 28.0469 8.89447C28.1077 8.89447 28.2292 8.95127 28.2747 9.00807C28.2866 9.03972 28.2886 9.07386 28.2805 9.10653C28.2724 9.1392 28.2546 9.16907 28.2292 9.19267C28.196 9.21603 28.1575 9.23201 28.1167 9.23939C28.076 9.24677 28.0339 9.24537 27.9938 9.23527C27.2952 8.90157 27.2345 9.94528 26.5435 9.72518C26.5435 9.78198 26.5435 9.86718 26.5435 9.88848C26.5435 9.90978 26.7409 9.97368 26.7941 9.93818C27.1206 9.73938 27.1282 9.93818 27.1282 10.1441C26.8017 10.2861 26.6042 10.4139 27.1282 10.5204C27.1282 10.5204 27.1282 10.8328 27.1282 10.9961C27.1596 11.1152 27.2082 11.2299 27.2724 11.3369C27.3636 11.2801 27.5534 11.1949 27.5458 11.1665C27.4167 10.8186 27.2573 10.4565 27.1054 10.1441C27.4471 10.2932 27.1054 9.62578 27.5762 9.83168C27.8419 9.93818 28.2444 9.76778 28.5861 9.71098C28.6129 9.62039 28.6129 9.52467 28.5861 9.43408C28.3431 8.92997 29.3454 9.56188 29.0644 9.00807C29.1608 9.07292 29.2522 9.1441 29.3378 9.22107L29.3606 9.24947ZM31.1449 10.5275C30.9855 10.5275 30.8336 10.4849 30.6742 10.4849C30.5147 10.4849 30.2262 10.4849 30.006 10.4849C29.8617 10.1867 30.6742 9.77488 29.8845 9.56188C29.8845 9.71808 30.1654 9.98788 29.6795 9.98788C29.6339 9.98788 29.5883 10.3003 29.5428 10.4636C29.6947 10.4636 29.8769 9.98788 30.006 10.4636C30.1105 10.6151 30.2019 10.7742 30.2793 10.9393C30.2793 10.989 30.1806 11.0813 30.1275 11.1594L31.0386 10.6553C31.0918 10.6269 31.0994 10.5488 31.1222 10.4991L31.1449 10.5275ZM32.8534 10.2293L32.4585 10.4778L31.9802 10.8115C31.7979 10.1583 31.5702 10.9393 31.3651 10.8115C31.517 10.9606 31.7752 11.0955 31.7904 11.2517C31.8055 11.4079 32.4282 11.5073 32.0637 11.8552C32.0257 11.8907 31.9118 11.8552 31.8359 11.8552C31.76 11.8552 31.8891 11.9404 31.927 11.9475C32.0147 11.9647 32.1052 11.9647 32.1928 11.9475C32.7015 11.7842 32.1169 11.5428 32.2459 11.3795C32.208 11.0671 32.2459 11.0103 32.5724 11.0671C32.7773 11.0974 32.9871 11.0619 33.1677 10.9665C33.3483 10.8711 33.4891 10.7214 33.5671 10.5417C33.6886 10.1015 32.861 10.776 32.8534 10.2293ZM34.8352 10.4423C34.4555 10.1796 34.7289 11.4718 34.0759 10.7334L34.167 11.7274C34.3872 11.4647 34.5998 11.202 34.9263 10.7547C34.9719 10.8186 34.9795 10.5488 34.8352 10.4423ZM37.5004 9.19977C37.5687 8.95127 38.0243 9.47668 37.9788 9.01517C38.1838 8.66017 38.8747 10.0021 38.852 8.80927C38.852 8.65307 38.981 8.48976 39.057 8.33356C38.8176 8.28618 38.5817 8.22452 38.3508 8.14896C38.2263 8.08256 38.1197 7.99024 38.0395 7.87916C37.9104 7.72296 37.8193 7.43185 37.6674 7.40345C37.3062 7.30915 36.9218 7.32912 36.574 7.46025C36.0729 7.77976 35.3591 7.11235 35.0022 7.80106C34.7289 7.36795 34.2809 7.65906 33.9164 7.60225L34.1518 7.27565C33.9224 7.28747 33.6955 7.32562 33.476 7.38925C33.4229 7.38925 33.4381 7.67326 33.476 7.80106C33.6886 8.25546 33.0053 7.92886 33.0356 8.21286H32.899L32.9597 7.87916C32.9748 7.8353 32.9748 7.78811 32.9597 7.74426C32.9597 7.70166 32.8838 7.63065 32.861 7.63775C32.1852 7.85076 31.7296 8.62467 30.8412 8.27676C30.7176 8.20902 30.603 8.128 30.4995 8.03536L30.583 9.07197C30.7957 8.50396 31.1373 9.17137 31.3803 9.00097C31.4131 8.97602 31.4396 8.94465 31.458 8.90907C31.4763 8.87349 31.4861 8.83457 31.4866 8.79507C31.4866 8.74537 31.3651 8.70987 31.2968 8.66727L31.7752 8.53236L31.555 9.02937C31.5165 9.11191 31.4734 9.19249 31.4259 9.27077L32.0409 9.12877C32.0102 9.05047 31.9873 8.96965 31.9726 8.88737C31.9656 8.78571 31.9656 8.68373 31.9726 8.58207L32.2611 8.62467C32.0409 9.08617 32.6712 9.11457 32.7547 9.41988C32.7547 9.49798 32.7547 9.64708 32.7547 9.66838C32.6214 9.70695 32.4838 9.73078 32.3447 9.73938L34.0075 9.89558C34.0531 9.89558 34.1594 9.76778 34.1594 9.76068C33.7418 9.34177 34.7213 9.41988 34.4707 9.05067C34.4328 8.99387 34.3265 8.97967 34.2505 8.94417C34.3341 8.88027 34.41 8.76667 34.4935 8.75957L36.7714 8.53236C36.7183 8.68147 36.331 8.90157 36.9005 8.90867C37.1131 8.95837 37.3181 9.11457 37.5004 9.19977ZM42.3524 10.7263C42.3347 10.5228 42.2888 10.3223 42.2157 10.1299C41.9955 9.73938 41.9424 10.2577 41.7753 10.2151C41.221 9.33467 40.3098 10.5559 39.71 9.95948C39.6828 10.0015 39.6466 10.0377 39.6037 10.066C39.4198 10.1602 39.2296 10.2432 39.0342 10.3145C38.9633 10.2359 38.9115 10.1438 38.8823 10.0447C38.8216 9.58318 37.9408 10.0447 38.0243 9.43408C37.9788 9.43408 37.9104 9.48378 37.8876 9.51928C37.8649 9.55478 37.8193 9.67548 37.8421 9.68968C38.2749 9.91688 37.8421 10.066 37.751 10.1938C37.6598 10.3216 37.265 10.5204 37.751 10.6411C37.9813 10.6818 38.2074 10.7412 38.4267 10.8186C38.6849 10.9251 39.0949 11.2162 39.1481 11.1665C39.5581 10.8115 39.9074 11.3582 39.9074 11.3298C40.0762 11.0004 40.3412 10.7224 40.6716 10.5277C41.0021 10.333 41.3847 10.2295 41.7753 10.2293V10.2293C41.631 10.279 41.9955 10.7192 41.502 10.5133C41.4033 10.4778 41.259 10.5133 41.1375 10.5559V10.6411C41.2633 10.6589 41.3913 10.6589 41.5171 10.6411C41.7449 10.5772 41.9575 10.4778 42.1777 10.421C42.2459 10.5175 42.3044 10.6197 42.3524 10.7263V10.7263ZM42.5802 7.50285C42.2765 7.50285 41.9348 7.36085 41.6994 7.46025C41.464 7.55965 41.6235 7.74426 41.9576 7.70876C42.2916 7.67325 41.7222 8.21286 42.2385 8.12766C42.5118 8.09926 42.155 7.66615 42.5802 7.50285V7.50285ZM46.111 6.79284L45.8604 6.99165C45.5415 7.24015 44.7139 6.99165 44.9265 7.77976C44.9265 7.86496 44.3722 7.27565 44.5164 7.89336C44.6237 8.02632 44.7775 8.11979 44.951 8.15743C45.1245 8.19507 45.3067 8.17448 45.4656 8.09926V8.09926C45.6326 8.64597 44.5316 8.00696 44.805 8.65307C44.729 8.65307 44.5848 8.65307 44.5848 8.60337C44.5012 7.63775 43.6736 7.57385 42.8687 7.48155C42.8232 7.48155 42.7548 7.59515 42.7093 7.65906C42.6637 7.72296 42.7093 7.71586 42.77 7.73006C43.2439 7.94095 43.6941 8.19544 44.114 8.48976C44.3676 8.78337 44.556 9.12129 44.6683 9.48378C44.6683 9.52638 44.4785 9.72518 44.3798 9.72518C44.0988 9.72518 43.8179 9.48378 43.5673 9.78908C43.8598 9.85593 44.1565 9.90572 44.4557 9.93818C44.7553 9.94286 45.0548 9.92624 45.3517 9.88848C45.2378 10.2364 46.111 10.1228 45.7541 10.5985C46.2249 10.4707 45.7541 10.1441 45.9363 9.95948C46.1186 9.77488 46.2932 9.74648 45.9363 9.71808C45.868 9.71808 45.7541 9.98078 45.7161 9.96658C45.5035 9.91688 45.4959 9.46248 45.1087 9.73228C45.2226 9.29917 44.5012 8.65307 45.5339 8.46846C45.7237 8.43296 46.0351 8.63177 46.0426 8.29096C46.0426 8.22706 45.6858 8.16316 45.4959 8.09926L45.3517 7.79396C45.4428 7.82946 45.5415 7.87206 45.6402 7.90046C45.7432 7.91753 45.8472 7.92938 45.9515 7.93596C45.9971 7.54545 46.0578 7.17625 46.111 6.81414V6.79284ZM47.7435 8.75957C48.1974 8.62891 48.6588 8.52224 49.1255 8.44006C49.8164 8.34776 50.4391 7.84366 51.2212 8.14186C51.3199 8.18446 51.5629 7.95016 51.7299 7.83656C51.777 7.78155 51.813 7.719 51.8362 7.65195H51.5477C51.0896 7.57359 50.623 7.54736 50.1581 7.57385C49.8012 7.63065 49.8316 7.43185 49.6873 7.32535C49.5431 7.21885 49.4064 7.32535 49.5203 7.32535C49.1634 7.58095 49.004 7.70166 48.8293 7.80816C48.8293 7.80816 48.723 7.76556 48.723 7.75136C48.716 7.66243 48.7371 7.57354 48.7838 7.49575C48.8562 7.43486 48.9382 7.38459 49.0267 7.34665C48.928 7.34665 48.8065 7.27565 48.7458 7.31115C48.6851 7.34665 48.6167 7.49575 48.5332 7.56675C48.3646 7.7319 48.173 7.87518 47.9637 7.99276C47.9637 7.99276 47.7283 7.78686 47.6144 7.66616C47.5005 7.54545 47.6144 7.54545 47.6144 7.52415C47.6705 7.50321 47.733 7.50321 47.7891 7.52415C47.9182 7.58805 47.9409 8.02116 48.0928 7.75846C48.2447 7.49575 48.0396 7.04845 47.9485 6.69344C47.9485 6.65084 47.4929 6.62244 47.4474 6.69344C46.9842 7.38925 47.7967 8.04246 47.7435 8.75957ZM50.8795 10.6624C50.8339 10.3074 50.9402 9.86008 50.2872 9.73938C49.9227 9.66838 49.5279 9.17847 49.2849 9.22107C48.7914 9.30627 49.5735 9.56898 49.3381 9.79618C49.109 9.69997 48.8904 9.58347 48.6851 9.44828C48.6091 9.39147 48.6471 9.20687 48.6319 9.08617C48.1459 9.19977 48.7078 9.95948 47.9789 9.92398C47.9789 9.96658 47.9789 10.0305 47.9789 10.0447C48.4649 10.3003 48.9356 10.421 49.3533 9.93108C49.6266 10.2719 49.9303 10.4849 50.3935 10.1512C50.475 10.1588 50.5507 10.1942 50.6061 10.2506C50.7428 10.8754 49.9835 10.4565 49.8468 10.7689C49.8468 10.847 49.5735 10.847 49.4216 10.8825C49.6704 10.9364 49.9256 10.9603 50.1809 10.9535C50.4694 10.9393 50.925 10.7334 50.9098 10.6624H50.8795ZM53.7345 9.67548C53.6688 9.5934 53.5978 9.51515 53.5219 9.44118C53.4955 9.43063 53.4671 9.42519 53.4384 9.42519C53.4096 9.42519 53.3812 9.43063 53.3548 9.44118C53.1441 9.57096 52.8972 9.64013 52.6449 9.64013C52.3925 9.64013 52.1457 9.57096 51.9349 9.44118C51.4034 9.03647 51.3275 9.76068 50.9934 9.61158L50.8035 10.0376L51.4945 9.94528C51.7193 9.92664 51.9446 9.97588 52.1373 10.0858C52.33 10.1957 52.48 10.3604 52.5651 10.5559C52.5651 10.5985 52.4133 10.7334 52.3298 10.8186C52.4881 10.8207 52.6454 10.7942 52.7929 10.7405C53.0435 10.5701 52.231 10.3003 52.7929 10.2364C53.1498 10.2293 53.7573 10.0802 53.7649 9.67548H53.7345ZM58.1613 7.07685C58.1613 7.07685 58.222 6.99165 58.2448 6.94195L58.0626 6.97745L57.2045 7.11945C57.2045 7.02005 57.121 6.86385 57.2045 6.84255C57.3577 6.7618 57.5247 6.70655 57.6981 6.67924C57.7922 6.68217 57.8849 6.70143 57.9715 6.73604C57.9715 6.68634 57.9715 6.60824 57.9715 6.57984C57.9715 6.55144 57.7437 6.39524 57.6829 6.41654C57.2273 6.58694 56.6578 6.18934 56.2478 6.65794C56.0097 6.55508 55.7812 6.43396 55.5644 6.29584C55.5644 6.29584 55.5644 6.21064 55.5644 6.17514L55.7315 5.90533L55.3366 6.06864C55.6783 6.18224 54.8355 6.62954 55.5341 6.63664C54.957 7.04845 55.9972 7.09105 55.7694 7.09815C55.2987 7.09815 54.8127 6.84965 54.7216 7.28985L53.9623 7.77976C53.9623 7.77976 54.0154 7.82236 54.0458 7.82946C55.1013 8.02116 55.0557 7.91466 55.329 7.82946C55.711 7.64042 56.1344 7.53632 56.5663 7.52524C56.9983 7.51415 57.4272 7.59639 57.8196 7.76556C58.0853 7.87206 57.6146 7.10525 58.1917 7.07685H58.1613ZM58.8674 6.95615C58.8552 6.90719 58.8373 6.85959 58.8143 6.81414L57.9715 7.26145L58.7308 7.74426L58.8674 6.95615ZM60.3861 3.2215L59.6268 2.7458C59.6343 2.8664 59.6343 2.9873 59.6268 3.1079C59.6268 3.1576 59.5812 3.2073 59.5584 3.257C59.5356 3.3067 59.5584 3.1505 59.4901 3.1363C59.2091 3.0227 58.9282 2.9162 58.6396 2.8239C58.6396 2.8239 58.503 2.9375 58.4574 3.0085C58.4119 3.0795 58.5485 3.1292 58.5561 3.1292C59.1028 2.8523 59.3154 3.2712 59.4066 3.54101C59.4274 3.60008 59.4612 3.65444 59.5058 3.70061C59.5504 3.74678 59.6048 3.78374 59.6656 3.80913C59.7263 3.83452 59.792 3.84778 59.8586 3.84807C59.9251 3.84836 59.991 3.83567 60.052 3.81081C60.219 3.77531 60.2646 3.49131 60.4012 3.2215H60.3861ZM62.3223 6.81414C61.7149 6.39524 61.6541 6.85675 61.4567 7.09105C61.4567 7.13365 61.1757 7.02715 61.0315 7.03425C60.8872 7.04135 60.8872 7.12655 60.8113 7.17625C61.2441 7.60225 61.5706 7.17625 61.9502 7.06975C62.0641 7.03425 62.1704 6.94195 62.3223 6.81414ZM68.6474 6.37394C68.6474 6.37394 68.6474 6.44494 68.5866 6.48044L68.9435 6.67924L69.4523 6.36684L68.0247 5.82723L67.8729 6.23194L67.8197 6.40234C67.754 6.36266 67.6855 6.32708 67.6147 6.29584C67.3519 6.16899 67.0741 6.07129 66.7871 6.00474C66.7111 6.00474 66.453 6.28874 66.4833 6.40234C66.7263 7.35375 66.1568 6.72184 65.9063 6.64374C65.7814 6.59023 65.6681 6.51561 65.5722 6.42364C65.6633 6.58694 65.7468 6.89225 65.8607 6.89935C66.3543 6.89935 66.7719 7.38925 67.3338 7.08395C67.4477 7.02005 67.8273 7.08395 67.8501 7.16205C68.2525 8.39036 68.8068 7.16205 69.2776 7.24015C69.2776 7.16915 69.2776 7.08395 69.2776 7.03425C69.1946 6.93301 69.1032 6.83805 69.0043 6.75024C69.0043 6.82125 69.0043 6.89225 69.0043 6.94905C68.822 7.39635 68.6474 7.02005 68.4576 6.94905C68.4576 6.94905 68.3285 7.03425 68.2677 7.07685C68.2981 6.67924 68.0172 6.67924 67.7134 6.67924C67.6451 6.67924 67.5768 6.60824 67.5008 6.57274L68.5942 6.13964C68.625 6.21465 68.6429 6.29372 68.6474 6.37394V6.37394ZM70.6216 7.02005L70.5229 7.06265C70.4394 7.00585 70.3407 6.95615 70.3179 6.88515C70.2951 6.81415 69.3384 6.97035 70.2268 6.65084C70.2872 6.63096 70.3429 6.6001 70.3905 6.56002C70.4381 6.51995 70.4768 6.47146 70.5044 6.41735C70.5319 6.36324 70.5477 6.30457 70.5509 6.24472C70.5541 6.18488 70.5445 6.12503 70.5229 6.06864C70.2248 6.10405 69.9335 6.17813 69.6573 6.28874C69.5842 6.35312 69.5299 6.43382 69.4993 6.52324C69.4688 6.61266 69.463 6.70788 69.4826 6.79995C69.6041 7.17625 69.9382 7.24015 70.4697 7.06265L70.5077 7.09815L70.6216 7.02005ZM74.122 3.328C73.6821 3.29972 73.2407 3.29972 72.8008 3.328C72.6869 3.328 72.5958 3.53391 72.4895 3.64751C72.649 3.74691 72.8464 3.96701 72.9603 3.93861C73.3659 3.76731 73.7547 3.56299 74.122 3.328V3.328ZM75.6407 6.70054L74.0461 5.99054L73.5905 6.87805C73.5905 6.87805 73.5905 6.95615 73.6361 6.95615C74.0461 6.89935 74.4485 6.82125 74.8662 6.77154C74.9421 6.77154 75.0484 6.87805 75.1091 6.95615C75.1543 7.02924 75.1875 7.10821 75.2078 7.19045L74.8662 7.26145L75.0712 7.68746L75.6407 6.70054ZM78.116 6.62244C77.5769 5.69943 77.3111 7.10525 76.8176 6.74314C76.6545 7.04838 76.5614 7.38211 76.5442 7.72296C76.5442 7.95016 76.7492 7.24015 77.0378 7.62355L77.7288 7.04135L77.6225 6.94905C77.7975 6.85483 77.9628 6.74548 78.116 6.62244V6.62244ZM80.0371 5.91243C79.6422 5.91243 79.2778 5.91243 78.845 5.91243C78.7918 5.91243 78.7462 6.01184 78.5716 6.18934C78.9664 6.30874 79.3699 6.40128 79.7789 6.46624C79.8245 6.45204 79.9308 6.09704 80.0143 5.91243H80.0371ZM85.823 6.77154C85.799 6.51191 85.7297 6.25769 85.618 6.01894C85.1776 5.30893 84.6157 6.01894 83.8488 5.93373C84.1146 6.12544 84.3196 6.20354 84.3576 6.31714C84.3955 6.43074 83.7653 6.02604 84.0462 6.53724C84.1595 6.53165 84.2705 6.5051 84.3727 6.45914C84.5702 6.36684 84.7676 6.25324 84.9574 6.15384C84.6993 6.73604 85.6712 6.40944 85.6104 6.86385C85.6775 6.84047 85.7413 6.80947 85.8003 6.77154H85.823ZM87.6074 2.7458C87.6074 2.831 87.8276 2.9162 87.9187 2.9801C88.2528 2.8736 88.8223 2.76 88.8147 2.689C88.754 2.09969 88.0554 2.8168 87.858 2.37659C87.7441 2.4973 87.5846 2.6251 87.5846 2.7458H87.6074ZM87.8504 5.12433C87.4631 5.18113 88.2149 4.68412 87.6833 4.81192C87.4208 4.90598 87.1827 5.0512 86.9848 5.23793C86.7607 5.44849 86.5503 5.67136 86.3546 5.90533C86.6731 6.06091 87.006 6.18924 87.3493 6.28874C87.4935 6.28874 87.6985 6.13964 87.9491 6.01894L87.3644 5.80593C87.2202 5.76333 87.0607 5.73493 86.9089 5.69943L87.4859 5.23083C87.5204 5.22 87.5577 5.22 87.5922 5.23083C87.6834 5.77043 87.9036 5.23083 87.9415 5.23083C88.1617 5.03912 87.9871 5.10303 87.8276 5.12433H87.8504ZM89.9537 4.65572C89.4374 4.08061 89.3842 4.89712 89.0045 4.90422C88.7616 4.90422 88.5186 5.23083 88.2452 5.41543C88.5464 5.46586 88.8569 5.42399 89.1305 5.29605C89.4042 5.16811 89.6263 4.96095 89.7639 4.70542C89.7639 4.70542 89.8929 4.66992 89.9309 4.65572H89.9537ZM92.6417 7.57385L91.3508 6.86385C91.6773 7.14075 91.2293 7.39635 91.2977 7.47445C91.5179 7.72296 92.057 7.28985 92.2468 7.73716L92.6417 7.57385ZM94.0616 7.13365C94.1071 6.97035 94.2666 6.77864 94.2134 6.67214C93.8717 6.04734 93.0593 6.57274 92.6037 6.18224C92.6037 6.18224 92.5278 6.22484 92.4898 6.24614L92.6796 6.40944C92.3379 6.15384 92.0646 6.35264 91.9203 6.56564C91.8444 6.65794 91.7533 7.05555 92.1861 7.06265C92.4518 7.06265 92.3911 6.92065 92.3531 6.74314C92.3152 6.56564 92.5733 6.52304 92.7024 6.40944C92.8998 6.51594 93.2719 6.63664 93.2567 6.72894C93.1808 7.39635 93.8642 7.08395 94.1223 7.28985C94.0616 7.24015 94.0616 7.17625 94.0616 7.13365ZM99.316 5.82723C97.7974 6.01184 97.8657 5.76333 98.2302 5.35153C98.2302 5.35153 98.01 4.99652 97.9113 5.00362C97.152 5.03912 98.0176 5.75623 97.4557 5.90533C97.767 6.39524 98.1619 6.11124 99.3084 5.82723H99.316ZM100.607 2.7458L101.738 2.8168C101.479 2.60842 101.197 2.42746 100.895 2.27719C100.744 2.21329 100.493 2.35529 100.288 2.40499C100.652 1.89379 99.9918 1.92929 99.7944 1.73759C99.597 1.54588 99.3312 1.60978 99.2932 1.66659C98.7617 2.37659 99.7488 2.37659 99.9766 2.7671C100.03 2.8381 100.387 2.7529 100.599 2.7458H100.607ZM101.776 5.79173C101.313 5.58583 100.835 5.26633 100.333 5.79173L100.212 5.91243C100.668 6.03314 101.123 6.16094 101.579 6.25324C101.665 6.10856 101.729 5.95318 101.769 5.79173H101.776ZM102.141 2.4973C102.329 2.42209 102.507 2.32679 102.672 2.21329L101.564 1.96479C101.381 2.29849 102.232 1.96479 101.769 2.40499C101.89 2.41919 102.034 2.5328 102.133 2.4973H102.141ZM103.371 7.50285L103.553 7.38925C103.082 7.26855 102.619 7.14785 102.156 7.04135C102.11 7.04135 102.027 7.17625 102.004 7.20465C102.27 8.34066 102.999 6.96325 103.363 7.50285H103.371ZM103.621 7.99986C103.621 7.93596 103.272 7.86496 103.037 7.77976C102.976 7.82946 102.816 7.94306 102.824 7.95726C103.006 8.20576 103.204 8.44716 103.401 8.66727C103.504 8.45475 103.575 8.23026 103.614 7.99986H103.621ZM104.692 1.75179C103.978 1.67369 104.29 2.09969 104.32 2.30559C104.214 2.7032 104.403 2.831 104.738 2.8523C104.714 2.80624 104.694 2.7588 104.677 2.7103C104.608 2.4973 104.677 2.5044 104.859 2.6109C104.927 2.31269 104.259 2.11389 104.692 1.75179ZM113.295 1.82279C113.249 1.72339 112.938 1.73049 112.619 1.65949C112.467 1.85119 112.11 2.09969 112.148 2.28429C112.224 2.6535 112.429 2.18489 112.52 2.24879C112.612 2.31269 113.029 2.40499 112.657 2.6322C113.105 3.186 113.151 2.5257 113.295 2.41919C113.439 2.31269 113.409 2.00029 113.318 1.82279H113.295ZM116.651 4.32912C116.522 4.27232 116.37 4.15161 116.264 4.18001C116.001 4.24476 115.747 4.33519 115.505 4.44982L115.77 4.79772L116.651 4.32912ZM117.312 5.82723C117.059 5.60408 116.775 5.41309 116.469 5.25923C116.408 5.25923 116.18 5.45093 116.036 5.55743L117.016 6.26744C117.137 6.10414 117.365 5.85563 117.334 5.82723H117.312ZM123.136 6.60114C122.528 6.45914 123.371 6.05444 123.136 6.06864C122.156 6.11834 122.915 6.67924 122.915 6.98455C122.926 7.04277 122.949 7.09834 122.984 7.14785C123.212 6.99875 123.462 6.92065 123.493 6.79995C123.523 6.67924 123.348 6.67924 123.158 6.60114H123.136ZM124.054 5.62133C124.054 5.62133 124.009 5.56453 123.986 5.56453L122.566 5.72073V5.66393C122.566 5.61423 122.566 5.66393 122.566 5.66393L122.521 5.73493H122.581C122.581 5.82723 122.65 5.94793 122.68 5.94793C123.082 5.94793 123.477 5.89823 123.872 5.84143C123.956 5.81303 124.016 5.69233 124.077 5.62133H124.054ZM125.193 3.2073L124.358 2.9801L123.986 3.2286L124.745 3.83211C124.692 3.49131 124.677 3.2002 125.193 3.2073ZM127.175 3.52681C127.076 3.52681 126.94 3.58361 126.94 3.61201C126.94 3.84631 126.94 4.08061 127.001 4.32202C127.19 4.32202 127.433 4.71962 127.509 4.36462C127.585 4.00961 127.312 3.77531 127.206 3.52681H127.175ZM129.924 5.13143L129.127 5.84143C129.241 5.88403 129.392 5.99054 129.461 5.96213C129.8 5.81172 130.113 5.61291 130.387 5.37283C130.509 5.25923 130.25 5.15273 129.954 5.13143H129.924ZM137.935 5.69233C137.73 5.55033 137.563 5.35863 137.434 5.37283C137.181 5.43739 136.938 5.53289 136.712 5.65683C136.978 5.87693 137.244 6.06864 137.631 5.84143L137.935 5.69233ZM138.079 5.21663C138.079 5.88403 138.671 5.77753 139.225 5.92663L139.552 5.82723C139.127 5.57873 138.709 5.33023 138.276 5.11723C138.284 5.05332 138.102 5.15983 138.102 5.21663H138.079ZM137.988 6.94905C138.165 7.17624 138.357 7.39209 138.565 7.59515C138.702 7.35375 138.899 7.13365 138.846 7.05555C138.696 6.88287 138.495 6.75462 138.269 6.68634C138.254 6.67924 137.995 6.91355 138.018 6.94905H137.988ZM139.765 8.22706L138.246 7.51705L137.957 8.08506L139.689 8.29096C139.689 8.29096 139.765 8.25546 139.795 8.22706H139.765ZM146.652 6.53014C146.454 6.33844 146.295 6.08284 146.052 5.97634C145.809 5.86983 145.642 6.07574 145.429 6.13964C145.672 6.35974 145.634 6.95615 146.317 6.71474L146.652 6.53014ZM150.365 8.24126C150.365 7.85786 150.137 8.35486 149.825 7.97146C149.894 8.31226 149.97 8.48266 149.917 8.51816C149.783 8.59254 149.636 8.64535 149.484 8.67437L150.046 9.06487C150.211 8.81074 150.329 8.53227 150.395 8.24126H150.365ZM171.625 10.563L170.699 10.2293L170.312 10.3429C170.567 10.5592 170.844 10.7518 171.139 10.918C171.215 10.9393 171.466 10.6979 171.641 10.563H171.625Z" fill="#81b642"/>
<path d="M150.591 9.64709L150.629 9.69679C150.629 9.69679 150.621 9.65419 150.591 9.64709Z" fill="#81b642"/>
<path d="M121.617 8.34028L121.61 8.32648L121.617 8.34028Z" fill="#81b642"/>
<path d="M121.617 8.34028L121.61 8.32648L121.617 8.34028Z" fill="#81b642"/>
<path d="M23.8241 4.76871H23.8377L23.8309 4.76221L23.8241 4.76871Z" fill="#81b642"/>
<path d="M70.5219 7.09815L70.6123 7.02005L70.5219 7.06265V7.09815Z" fill="#81b642"/>
<path d="M41.7646 10.2079L41.7714 10.2144L41.7782 10.2079H41.7646Z" fill="#81b642"/>
<path d="M122.572 5.64972L122.527 5.72072H122.587V5.66392L122.572 5.64972Z" fill="#81b642"/>
<path d="M27.1508 10.2076L27.1584 10.2007L27.1508 10.1938V10.2076Z" fill="#81b642"/>
<path d="M92.6697 6.41599L92.6621 6.40949L92.6697 6.41599Z" fill="#81b642"/>
<path d="M27.9465 7.62356L27.7498 7.75847L27.9994 7.66616L27.9465 7.62356Z" fill="#81b642"/>
<path d="M21.9396 11.4222L21.9532 11.4287L21.9464 11.4222H21.9396Z" fill="#81b642"/>
<path d="M60.3715 10.4985H60.3851L60.3715 10.492V10.4985Z" fill="#81b642"/>
<path d="M56.0961 10.5843C56.0961 10.5843 56.0429 10.6908 56.0201 10.6908C55.8785 10.6978 55.7365 10.6978 55.5949 10.6908C55.69 10.6505 55.7814 10.603 55.8683 10.5488C55.9214 10.5133 55.9897 10.421 55.9746 10.3997C55.8992 10.3056 55.8154 10.2177 55.724 10.137C55.7043 10.1756 55.689 10.216 55.6784 10.2577C55.6784 10.3216 55.6784 10.4423 55.6784 10.4423C55.4051 10.4423 55.1241 10.4423 54.8508 10.4423C54.7976 10.4423 54.7521 10.3926 54.6989 10.3642C54.6915 10.4492 54.6915 10.5347 54.6989 10.6198C54.6989 10.6766 54.8052 10.7618 54.828 10.7547C55.481 10.4991 55.7164 10.9961 55.9594 11.3227C56.2024 11.6493 56.7187 11.3227 57.03 11.5144L57.2198 11.2233L57.3261 10.5133L56.0961 10.5843Z" fill="#81b642"/>
<path d="M16.6097 12.2954C16.515 12.2876 16.4238 12.2584 16.3439 12.2102C15.9946 11.912 15.3948 12.6291 15.1366 11.9688C15.0986 11.8623 15.0455 11.8268 14.9771 11.8268L15.0683 12.5368C15.4479 12.5368 15.8276 12.5368 16.2072 12.5368C16.3363 12.5581 16.4654 12.3593 16.6097 12.2954Z" fill="#81b642"/>
<path d="M58.1755 10.7973C58.1755 10.7973 58.1755 10.8967 58.1071 10.9038C58.0035 10.911 57.8994 10.911 57.7958 10.9038C57.7958 10.9038 57.7958 10.8328 57.7958 10.8115C58.1451 10.4352 58.221 10.2861 57.6515 10.6766C57.2339 10.9535 57.7578 10.066 57.2795 10.4423L57.1732 11.1523C57.8414 11.7842 58.3349 10.9251 58.9348 10.9677V10.6553L58.7981 10.5843C58.6614 10.7902 58.1147 10.0376 58.1755 10.7973Z" fill="#81b642"/>
<path d="M21.8789 5.70652C22.4432 5.65175 23.0019 5.5544 23.5494 5.41542C22.6914 5.22372 22.0308 5.06751 21.3929 4.95391C21.3322 4.93971 21.1652 5.25922 21.1652 5.25922C21.3778 5.45092 21.6283 5.70652 21.8789 5.70652Z" fill="#81b642"/>
<path d="M60.3713 10.4985V10.492H60.3637L60.3713 10.4985Z" fill="#81b642"/>
<path d="M60.1354 10.1085C59.8089 10.1511 59.285 10.0375 59.2395 10.4281C59.1939 10.8186 58.632 9.88134 58.8294 10.5843L58.9661 10.6553C59.528 11.2872 59.9532 10.9748 60.3708 10.492C60.2873 10.3571 60.1962 10.1014 60.1354 10.1085Z" fill="#81b642"/>
<path d="M43.7178 3.32089C43.3534 2.61089 42.8674 3.683 42.4042 3.32089L42.0094 3.5339C42.3228 3.67068 42.6595 3.7548 43.0041 3.7824C43.2774 3.7682 43.8849 3.6404 43.7178 3.32089Z" fill="#81b642"/>
<path d="M66.2105 10.3784C66.3396 10.3784 66.5522 10.1725 66.7268 10.0589L66.0131 9.79623L65.846 9.47672L65.3297 9.93113C65.6009 10.116 65.8971 10.2664 66.2105 10.3784V10.3784Z" fill="#81b642"/>
<path d="M86.4673 9.21398L86.1104 8.86608C85.951 9.02228 85.5789 8.94418 85.6169 9.32758C85.6852 10.0376 86.4218 8.99388 86.5053 9.59739C86.6192 9.47668 87.1507 9.32758 86.4673 9.21398Z" fill="#81b642"/>
<path d="M45.305 3.5907C45.305 3.5339 45.2519 3.4487 45.2063 3.4345C45.095 3.38545 44.9693 3.37294 44.8495 3.399C44.7507 3.4487 44.7052 3.5907 44.6369 3.6901C44.6976 3.6901 44.7963 3.6475 44.8191 3.6901C44.8727 3.75722 44.909 3.83495 44.9254 3.9173C44.9254 3.9741 44.9254 4.0806 44.9254 4.10191C44.5761 4.30781 44.9254 4.36461 45.0089 4.48531L45.1304 4.26521L45.2215 4.18001C45.2519 3.967 44.7052 3.6475 45.305 3.5907Z" fill="#81b642"/>
<path d="M45.1978 4.15872L45.1074 4.24392C45.1677 4.21552 45.1903 4.18712 45.1978 4.15872Z" fill="#81b642"/>
<path d="M70.9028 9.43413V9.81044C71.0471 9.98794 71.1989 10.3216 71.4647 10.0944C71.7305 9.86724 71.5786 9.58323 71.6318 9.31343C71.4116 9.44833 71.2369 9.82464 70.9028 9.43413Z" fill="#81b642"/>
<path d="M171.053 11.1878L170.954 11.3582C171.341 11.5996 171.713 11.8481 172.116 12.0682C172.116 12.0682 172.321 11.912 172.306 11.8765C172.078 11.3653 171.265 11.8339 171.053 11.1878Z" fill="#81b642"/>
<path d="M118.304 9.07198C118.014 9.2169 117.733 9.37568 117.461 9.54769L117.909 9.68969L118.668 9.39149C118.516 9.27789 118.357 9.05068 118.304 9.07198Z" fill="#81b642"/>
<path d="M101.071 9.0081L101.01 9.64711L101.655 9.51931L101.876 9.73941C101.85 9.52766 101.78 9.32264 101.671 9.1359C101.534 9.0436 101.268 9.0507 101.071 9.0081Z" fill="#81b642"/>
<path d="M129.337 9.29203C129.192 9.29203 129.071 9.47663 128.942 9.57603C129.165 9.65449 129.397 9.70927 129.633 9.73933C129.716 9.73933 129.807 9.51923 129.906 9.37723C129.723 9.31899 129.53 9.29018 129.337 9.29203V9.29203Z" fill="#81b642"/>
<path d="M148.943 9.29207C148.639 9.35771 148.343 9.45536 148.063 9.58318C148.23 10.1654 148.769 9.22107 149.004 9.75358L149.164 9.54057C149.08 9.44827 148.981 9.28497 148.943 9.29207Z" fill="#81b642"/>
<path d="M82.2064 9.19265C82.0317 9.50505 82.1532 9.95946 81.6521 10.1157C82.0165 10.2222 82.1988 10.1157 82.214 9.75355C82.3127 9.27785 82.4721 9.59025 82.624 9.75355C82.9961 9.24945 82.1988 9.46245 82.2064 9.19265Z" fill="#81b642"/>
<path d="M22.8219 5.13851L23.8166 4.76221C23.7103 4.71961 23.5205 4.62731 23.5053 4.64861C23.3155 4.86161 22.6853 4.54921 22.8219 5.13851Z" fill="#81b642"/>
<path d="M23.8301 4.76221H23.8165L23.8233 4.76871L23.8301 4.76221Z" fill="#81b642"/>
<path d="M23.8241 4.76871L23.8318 4.76221L23.8241 4.76871Z" fill="#81b642"/>
<path d="M70.6659 9.29207C70.5725 9.23792 70.4697 9.19947 70.3621 9.17846C70.3242 9.17846 70.2103 9.34177 70.2331 9.38437C70.4001 9.63997 70.5823 9.88847 70.7646 10.137L70.8937 9.80327C70.6203 9.71097 70.4077 9.59027 70.6659 9.29207Z" fill="#81b642"/>
<path d="M121.557 8.14891C121.496 7.92171 121.329 7.90041 121.314 8.09921C121.313 8.31038 121.354 8.51987 121.435 8.71691C121.435 8.75241 121.618 8.71691 121.716 8.75241L121.61 8.32641L121.557 8.14891Z" fill="#81b642"/>
<path d="M113.857 9.44826L115.034 9.55476L115.406 9.46246C114.966 9.40566 114.525 9.34176 114.077 9.29916C114.009 9.29206 113.933 9.39146 113.857 9.44826Z" fill="#81b642"/>
<path d="M38.4866 8.98676C38.8358 8.57495 38.0613 8.84476 38.0386 8.44005C38.0158 8.03535 37.5374 7.73004 37.1881 8.39035L37.8715 8.90866C38.0841 8.93706 38.4258 9.05776 38.4866 8.98676Z" fill="#81b642"/>
<path d="M34.8338 8.17025C34.7351 8.46846 35.0161 8.39035 35.2211 8.43296L35.8817 8.16315C35.6007 8.09215 35.3198 8.00695 35.0312 7.95725C34.9477 7.95015 34.8338 8.09925 34.8338 8.17025Z" fill="#81b642"/>
<path d="M196.743 11.6493C196.794 11.7429 196.805 11.8507 196.776 11.9519C196.747 12.0531 196.678 12.1407 196.584 12.1978C196.49 12.255 196.377 12.2777 196.266 12.2616C196.156 12.2456 196.055 12.1919 195.984 12.1108C195.756 11.912 195.513 11.9049 195.293 11.7913C195.202 11.7416 194.989 11.8623 194.83 11.9049C195.635 12.7995 193.311 12.0185 194.146 12.9131C193.387 12.6646 193.098 13.5237 192.438 13.5095C192.605 12.9983 191.929 13.332 191.846 13.0409C191.762 12.7498 192.658 12.8918 192.035 12.5226C192.131 12.516 192.228 12.516 192.324 12.5226L193.152 12.6433C193.182 12.5844 193.205 12.5225 193.22 12.4587L191.944 12.1108L192.035 12.551C191.571 12.5792 191.104 12.553 190.646 12.4729C189.89 12.2002 189.074 12.1028 188.269 12.1889C188.034 12.2244 187.912 12.3806 187.783 12.0895C187.783 12.0895 187.191 11.8694 187.601 12.3522C187.721 12.4824 187.872 12.5845 188.041 12.6504C188.109 12.6801 188.181 12.7016 188.254 12.7143C188.171 12.7143 188.079 12.8066 188.011 12.7924C186.961 12.4002 185.794 12.3825 184.731 12.7427C184.731 12.7427 184.647 12.7072 184.647 12.6859C184.579 12.3806 184.404 12.3096 184.101 12.4658L183.979 12.5084C184.42 12.5084 184.435 12.7995 184.465 13.0764L185.27 12.9273C185.214 13.0816 185.1 13.2115 184.949 13.2926C184.798 13.3737 184.62 13.4003 184.45 13.3675C184.26 13.3675 184.101 13.1403 183.903 13.0977C183.212 12.9415 182.506 12.8208 181.808 12.6859C181.845 12.8208 181.959 13.0054 181.899 13.0906C181.618 13.4953 181.443 12.9131 181.367 12.977C180.874 13.3604 180.904 13.3746 180.858 12.693C180.858 12.6149 180.479 12.4587 180.456 12.48C180.084 12.8492 179.75 12.2031 179.4 12.4303C179.4 12.4658 179.325 12.5297 179.279 12.5297C179.25 12.5282 179.221 12.5212 179.195 12.509C179.169 12.4968 179.146 12.4796 179.127 12.4587L178.823 12.1179L178.922 11.273L180.183 11.7629L181.284 11.557C180.6 11.4079 179.909 11.2588 179.218 11.1239C179.135 11.1239 179.021 11.2162 178.922 11.273L179.514 6.24611C179.712 6.24611 179.955 6.24611 180.099 6.32421C180.243 6.40231 180.304 6.32421 180.403 6.32421C180.313 6.28223 180.227 6.23479 180.145 6.18221L179.864 5.92661C179.933 5.89495 180.007 5.8734 180.084 5.86271C180.259 5.86271 180.433 5.86271 180.608 5.90531C180.357 6.97032 181.405 6.18931 181.724 6.52301C182.162 6.79138 182.673 6.93675 183.197 6.94192C183.197 6.87092 183.106 6.75022 183.136 6.72892C183.229 6.64438 183.349 6.59179 183.478 6.57982C183.721 6.57982 183.956 6.72892 184.237 6.74312C185.308 6.81412 186.394 6.79282 187.449 6.96322C187.809 7.05487 188.178 7.10962 188.55 7.12652C189.65 7.11513 190.735 7.35909 191.709 7.83653C191.709 7.73713 191.709 7.60933 191.77 7.53833C191.83 7.46733 192.058 7.21172 192.127 7.24012C192.195 7.26852 192.4 7.51703 192.575 7.57383C192.977 7.70873 193.334 8.11343 193.865 7.71583C193.926 7.67323 194.329 7.89333 194.336 7.87913C194.594 7.48153 194.693 7.53123 194.685 7.95723C195.445 7.85783 195.445 8.46134 195.445 8.80924C195.445 9.27785 195.68 9.33465 196.052 9.39145C196.056 9.43399 196.056 9.4767 196.052 9.51925C195.858 9.50497 195.662 9.50497 195.468 9.51925C195.273 9.55965 195.083 9.61425 194.898 9.68255C194.991 9.7874 195.098 9.88049 195.217 9.95945C195.371 10.0216 195.531 10.0692 195.695 10.1015C195.519 10.0839 195.34 10.0839 195.164 10.1015C194.458 10.2293 194.913 10.8115 194.716 11.0955C194.994 11.1106 195.27 11.1439 195.543 11.1949C195.946 11.3227 196.644 11.3866 196.743 11.6493ZM181.618 10.7192C181.299 10.5559 180.995 10.3642 180.661 10.2293C180.547 10.1867 180.372 10.2719 180.221 10.3003L181.276 10.8825L181.618 10.7192ZM181.618 11.983C181.299 11.9191 180.98 11.8552 180.661 11.8055C180.661 11.8055 180.623 11.9475 180.6 12.0469C180.562 12.4374 180.6 12.3451 180.866 12.1108C181.284 11.77 180.942 12.5865 181.291 12.4019C181.443 12.2954 181.511 12.0966 181.618 11.9546V11.983ZM184.063 11.5215C183.994 11.4008 183.949 11.2233 183.842 11.1878C183.736 11.1523 183.516 11.2375 183.357 11.1878C183.187 11.1411 183.022 11.0817 182.863 11.0103C183 10.9606 183.326 11.0103 183.022 10.7476C182.855 10.6382 182.674 10.5476 182.483 10.4778L182.582 10.9464C182.506 11.0103 182.415 11.1736 182.309 11.1807C181.762 11.2162 181.435 11.3369 181.868 11.8907C181.921 11.9617 182.05 12.0682 182.096 12.054C182.278 11.9741 182.453 11.8815 182.62 11.7771C182.62 11.7771 182.62 11.7416 182.574 11.7274L182.278 11.5357H182.779L184.063 11.5215ZM185.338 11.202C184.9 10.9477 184.42 10.7607 183.918 10.6482C183.022 10.5985 183.767 10.7476 183.918 10.8612C183.713 11.2304 184.382 10.8612 184.328 11.202H185.338Z" fill="#81b642"/>
<path d="M197.5 10.9726C197.5 10.9726 197.394 11.0294 197.333 11.0578L198.032 12.0447L198.176 11.6045C197.956 11.3915 197.735 11.1785 197.5 10.9726Z" fill="#81b642"/>
</svg>
