<svg data-name="Layer 1" viewBox="0 0 129.86 109.7" xmlns="http://www.w3.org/2000/svg"><path d="M129.86 34.38a34.29 34.29 0 0 1-13.64 27.41c-.11.07-.2.16-.31.23A53.8 53.8 0 0 0 95.3 95.33a54.57 54.57 0 0 0-.88 9.72c0 1.56.08 3.12.21 4.65a56.77 56.77 0 0 0-59-10.92h-.05l-1.4.57h-.07a25.69 25.69 0 0 1-8.67 1.51 25.39 25.39 0 1 1 0-50.78c.88 0 1.74.05 2.6.13h.29l1.26.17h.07a56.7 56.7 0 0 1 38 23.78 53.84 53.84 0 0 1-3.15-54.69v-.08a54.42 54.42 0 0 1 2.86-4.84 34.36 34.36 0 0 1 62.5 19.74" style="fill:#81b642"/></svg>